<?xml version="1.0" encoding="UTF-8" standalone="no"?>
<!-- Created with Inkscape (http://www.inkscape.org/) -->

<svg
   version="1.1"
   id="svg2"
   width="793.70135"
   height="793.70135"
   viewBox="0 0 793.70135 793.70135"
   sodipodi:docname="logowithname.ai"
   xmlns:inkscape="http://www.inkscape.org/namespaces/inkscape"
   xmlns:sodipodi="http://sodipodi.sourceforge.net/DTD/sodipodi-0.dtd"
   xmlns="http://www.w3.org/2000/svg"
   xmlns:svg="http://www.w3.org/2000/svg">
  <defs
     id="defs6">
    <clipPath
       clipPathUnits="userSpaceOnUse"
       id="clipPath16">
      <path
         d="M 0,595.276 H 595.276 V 0 H 0 Z"
         id="path14" />
    </clipPath>
    <clipPath
       clipPathUnits="userSpaceOnUse"
       id="clipPath36">
      <path
         d="m 318.215,336.664 h 89.198 v -71.36 h -89.198 z"
         id="path34" />
    </clipPath>
    <clipPath
       clipPathUnits="userSpaceOnUse"
       id="clipPath72">
      <path
         d="m 220.896,345.312 h 86.118 v -93.353 h -86.118 z"
         id="path70" />
    </clipPath>
    <clipPath
       clipPathUnits="userSpaceOnUse"
       id="clipPath96">
      <path
         d="m 223.246,304.733 h 20.157 V 277.1 h -20.157 z"
         id="path94" />
    </clipPath>
    <clipPath
       clipPathUnits="userSpaceOnUse"
       id="clipPath128">
      <path
         d="M 260.295,337.557 H 394.42 V 205.977 H 260.295 Z"
         id="path126" />
    </clipPath>
    <clipPath
       clipPathUnits="userSpaceOnUse"
       id="clipPath152">
      <path
         d="m 246.071,358.696 h 97.502 V 181.007 h -97.502 z"
         id="path150" />
    </clipPath>
    <clipPath
       clipPathUnits="userSpaceOnUse"
       id="clipPath188">
      <path
         d="m 330.723,284.296 h 13.874 v -10.031 h -13.874 z"
         id="path186" />
    </clipPath>
    <clipPath
       clipPathUnits="userSpaceOnUse"
       id="clipPath212">
      <path
         d="m 284.474,297.761 h 53.199 v -35.062 h -53.199 z"
         id="path210" />
    </clipPath>
    <clipPath
       clipPathUnits="userSpaceOnUse"
       id="clipPath236">
      <path
         d="m 284.794,281.805 h 46.757 v -19.106 h -46.757 z"
         id="path234" />
    </clipPath>
    <clipPath
       clipPathUnits="userSpaceOnUse"
       id="clipPath260">
      <path
         d="m 298.437,287.462 h 10.252 v -13.227 h -10.252 z"
         id="path258" />
    </clipPath>
    <clipPath
       clipPathUnits="userSpaceOnUse"
       id="clipPath284">
      <path
         d="m 302.547,283.051 h 10.254 v -8.679 h -10.254 z"
         id="path282" />
    </clipPath>
    <clipPath
       clipPathUnits="userSpaceOnUse"
       id="clipPath316">
      <path
         d="m 243.434,285.667 h 46.545 V 272.7 h -46.545 z"
         id="path314" />
    </clipPath>
    <clipPath
       clipPathUnits="userSpaceOnUse"
       id="clipPath336">
      <path
         d="m 320.366,265.693 h 0.503 v -6.988 h -0.503 z"
         id="path334" />
    </clipPath>
    <clipPath
       clipPathUnits="userSpaceOnUse"
       id="clipPath352">
      <path
         d="m 320.357,258.7 h 0.01 v -0.097 h -0.01 z"
         id="path350" />
    </clipPath>
    <clipPath
       clipPathUnits="userSpaceOnUse"
       id="clipPath376">
      <path
         d="m 193.706,289.355 h 38.015 v -15.677 h -38.015 z"
         id="path374" />
    </clipPath>
    <clipPath
       clipPathUnits="userSpaceOnUse"
       id="clipPath392">
      <path
         d="m 226.814,326.849 h 33.254 v -36.911 h -33.254 z"
         id="path390" />
    </clipPath>
    <clipPath
       clipPathUnits="userSpaceOnUse"
       id="clipPath408">
      <path
         d="m 231.73,289.938 h 0.267 v -0.569 h -0.267 z"
         id="path406" />
    </clipPath>
    <clipPath
       clipPathUnits="userSpaceOnUse"
       id="clipPath444">
      <path
         d="m 358.811,227.026 h 25.942 v -21.049 h -25.942 z"
         id="path442" />
    </clipPath>
    <clipPath
       clipPathUnits="userSpaceOnUse"
       id="clipPath460">
      <path
         d="M 363.749,232.899 H 396.59 V 215.321 H 363.749 Z"
         id="path458" />
    </clipPath>
    <clipPath
       clipPathUnits="userSpaceOnUse"
       id="clipPath680">
      <path
         d="M 221.315,442.541 H 359.177 V 304.534 H 221.315 Z"
         id="path678" />
    </clipPath>
    <clipPath
       clipPathUnits="userSpaceOnUse"
       id="clipPath708">
      <path
         d="M 241.945,427.075 H 358.772 V 312.935 H 241.945 Z"
         id="path706" />
    </clipPath>
    <clipPath
       clipPathUnits="userSpaceOnUse"
       id="clipPath724">
      <path
         d="m 241.373,372.166 h 115.276 v -58.98 H 241.373 Z"
         id="path722" />
    </clipPath>
    <clipPath
       clipPathUnits="userSpaceOnUse"
       id="clipPath752">
      <path
         d="m 212.414,377.582 h 35.833 v -41.841 h -35.833 z"
         id="path750" />
    </clipPath>
    <clipPath
       clipPathUnits="userSpaceOnUse"
       id="clipPath780">
      <path
         d="m 254.249,385.922 h 17.786 v -20.291 h -17.786 z"
         id="path778" />
    </clipPath>
    <clipPath
       clipPathUnits="userSpaceOnUse"
       id="clipPath796">
      <path
         d="m 262.16,358.335 h 7.304 v -8.128 h -7.304 z"
         id="path794" />
    </clipPath>
    <clipPath
       clipPathUnits="userSpaceOnUse"
       id="clipPath812">
      <path
         d="m 211.349,365.731 h 28.23 v -27.2 h -28.23 z"
         id="path810" />
    </clipPath>
  </defs>
  <sodipodi:namedview
     id="namedview4"
     pagecolor="#ffffff"
     bordercolor="#000000"
     borderopacity="0.25"
     inkscape:showpageshadow="2"
     inkscape:pageopacity="0.0"
     inkscape:pagecheckerboard="0"
     inkscape:deskcolor="#d1d1d1" />
  <g
     id="g8"
     inkscape:groupmode="layer"
     inkscape:label="logowithname"
     transform="matrix(1.3333333,0,0,-1.3333333,0,793.70133)">
    <g
       id="g10">
      <g
         id="g12"
         clip-path="url(#clipPath16)">
        <g
           id="g18"
           transform="translate(429.4397,332.6331)">
          <path
             d="m 0,0 c 0,-72.934 -59.125,-132.059 -132.059,-132.059 -72.934,0 -132.059,59.125 -132.059,132.059 0,72.934 59.125,132.059 132.059,132.059 C -59.125,132.059 0,72.934 0,0"
             style="fill:#b92d79;fill-opacity:1;fill-rule:nonzero;stroke:none"
             id="path20" />
        </g>
        <g
           id="g22"
           transform="translate(429.4397,332.6331)">
          <path
             d="m 0,0 c 0,-72.934 -59.125,-132.059 -132.059,-132.059 -72.934,0 -132.059,59.125 -132.059,132.059 0,72.934 59.125,132.059 132.059,132.059 C -59.125,132.059 0,72.934 0,0 Z"
             style="fill:none;stroke:#351c43;stroke-width:9.6;stroke-linecap:butt;stroke-linejoin:miter;stroke-miterlimit:10;stroke-dasharray:none;stroke-opacity:1"
             id="path24" />
        </g>
        <g
           id="g26"
           transform="translate(409.6126,276.4189)">
          <path
             d="m 0,0 c -10.803,-11.521 -23.068,-11.689 -31.418,-10.78 -8.883,0.965 -21.235,3.907 -36.192,15.023 -2.076,1.544 -4.206,3.248 -6.383,5.122 l -8.063,23.569 -0.972,2.84 -8.37,24.471 20.508,-8.161 0.435,-0.173 c 0,0 1.239,-4.171 5.432,-9.852 0.626,-0.847 1.314,-1.729 2.076,-2.633 4.263,-5.064 10.751,-10.902 20.461,-15.978 C -19.879,11.62 7.441,23.49 7.441,23.49 7.441,23.49 15.107,16.121 0,0"
             style="fill:#ffffff;fill-opacity:1;fill-rule:nonzero;stroke:none"
             id="path28" />
        </g>
        <g
           id="g30">
          <g
             id="g32" />
          <g
             id="g44">
            <g
               clip-path="url(#clipPath36)"
               opacity="0.350006"
               id="g42">
              <g
                 transform="translate(407.4127,274.2424)"
                 id="g40">
                <path
                   d="m 0,0 c -10.24,-9.363 -21.429,-9.451 -29.218,-8.604 -8.883,0.965 -21.235,3.907 -36.192,15.024 -2.076,1.544 -4.206,3.247 -6.384,5.122 l -8.062,23.568 -9.342,27.312 8.97,-3.571 4.601,-13.448 3.041,-12.148 c 6.344,0.459 12.36,-28.018 45.247,-37.169 C -17.373,-6.688 -8.301,-5.197 0,0"
                   style="fill:#351c43;fill-opacity:1;fill-rule:nonzero;stroke:none"
                   id="path38" />
              </g>
            </g>
          </g>
        </g>
        <g
           id="g46"
           transform="translate(352.1417,270.7784)">
          <path
             d="m 0,0 c -5.092,2.868 -10.6,6.672 -16.482,11.744 -0.699,0.603 -0.777,1.659 -0.174,2.358 0.603,0.7 1.661,0.778 2.358,0.175 C 3.811,-1.338 18.153,-4.474 27.364,-5.474 35.312,-6.336 47.07,-6.211 57.381,4.789 68.239,16.373 66.583,22.898 65.441,25.09 59.673,22.863 35.873,14.872 15.343,25.609 -8.115,37.882 -13.248,54.385 -13.455,55.082 c -0.263,0.885 0.241,1.816 1.127,2.079 0.883,0.263 1.813,-0.24 2.078,-1.123 0.057,-0.19 5.056,-15.918 27.143,-27.466 21.648,-11.322 48.218,-0.017 48.484,0.099 l 1.022,0.444 0.803,-0.773 C 67.564,27.994 75.873,19.628 59.821,2.502 48.487,-9.59 35.663,-9.738 27.003,-8.798 20.366,-8.077 11.195,-6.306 0,0"
             style="fill:#351c43;fill-opacity:1;fill-rule:nonzero;stroke:none"
             id="path48" />
        </g>
        <g
           id="g50"
           transform="translate(366.0748,265.3968)">
          <path
             d="m 0,0 c -0.163,0.092 -0.309,0.218 -0.429,0.377 -9.82,13.037 4.539,30.774 5.155,31.522 0.49,0.596 1.369,0.682 1.964,0.191 C 7.285,31.601 7.371,30.722 6.882,30.126 6.745,29.96 -6.696,13.336 1.801,2.056 2.265,1.44 2.141,0.565 1.526,0.101 1.069,-0.243 0.469,-0.264 0,0"
             style="fill:#351c43;fill-opacity:1;fill-rule:nonzero;stroke:none"
             id="path52" />
        </g>
        <g
           id="g54"
           transform="translate(417.4822,294.844)">
          <path
             d="M 0,0 C 0.586,0.326 1.522,0.498 1.463,0.999 0.96,5.287 -2.538,9.281 -6.396,5.592 -8.105,3.957 -7.783,2.476 -8.384,2.062 c 0,0 -1.992,-0.38 -3.156,-1.953 -0.832,-1.125 -0.78,-2.082 -1.697,-2.854 0,0 -6.224,-2.759 -7.118,-8.824 -0.277,-1.884 0.413,-3.139 -0.711,-4.606 z"
             style="fill:#ffffff;fill-opacity:1;fill-rule:nonzero;stroke:none"
             id="path56" />
        </g>
        <g
           id="g58"
           transform="translate(395.597,277.2114)">
          <path
             d="m 0,0 c -0.068,0.038 -0.134,0.082 -0.198,0.131 -0.733,0.561 -0.872,1.611 -0.31,2.344 0.344,0.449 0.349,0.795 0.313,1.731 -0.022,0.572 -0.049,1.284 0.071,2.101 0.912,6.186 6.467,9.304 7.811,9.974 0.123,0.144 0.213,0.34 0.38,0.736 0.202,0.476 0.453,1.068 0.934,1.719 1.022,1.382 2.458,2.062 3.361,2.372 0.229,0.771 0.622,2.034 1.972,3.325 2.674,2.557 5.092,2.01 6.295,1.457 2.737,-1.257 4.645,-5.065 4.438,-8.852 -0.05,-0.922 -0.839,-1.629 -1.761,-1.579 -0.922,0.051 -1.628,0.839 -1.578,1.761 0.13,2.37 -1.022,4.948 -2.497,5.632 -0.286,0.131 -1.156,0.532 -2.586,-0.836 -0.732,-0.7 -0.914,-1.31 -1.09,-1.9 -0.173,-0.581 -0.389,-1.305 -1.105,-1.798 l -0.29,-0.2 -0.345,-0.065 C 13.814,18.052 12.435,17.755 11.69,16.747 11.444,16.415 11.306,16.089 11.146,15.712 10.88,15.084 10.548,14.301 9.725,13.609 L 9.543,13.455 9.326,13.359 C 9.277,13.337 3.929,10.872 3.184,5.82 3.109,5.309 3.127,4.835 3.146,4.334 3.189,3.236 3.241,1.87 2.146,0.441 1.633,-0.228 0.714,-0.402 0,0"
             style="fill:#351c43;fill-opacity:1;fill-rule:nonzero;stroke:none"
             id="path60" />
        </g>
        <g
           id="g62"
           transform="translate(238.5204,341.9419)">
          <path
             d="m 0,0 c -10.358,-7.834 -19.718,-44.959 -17.214,-67.054 2.503,-22.096 41.586,-23.581 63.93,-22.766 22.344,0.815 22.045,51.342 21.693,64.876 C 67.859,-3.811 15.348,11.608 0,0"
             style="fill:#ffffff;fill-opacity:1;fill-rule:nonzero;stroke:none"
             id="path64" />
        </g>
        <g
           id="g66">
          <g
             id="g68" />
          <g
             id="g80">
            <g
               clip-path="url(#clipPath72)"
               opacity="0.350006"
               id="g78">
              <g
                 transform="translate(285.2368,252.1217)"
                 id="g76">
                <path
                   d="m 0,0 c -22.344,-0.815 -61.425,0.673 -63.933,22.767 -0.325,2.894 -0.452,6.043 -0.394,9.352 6.193,-4.825 14.773,-0.469 15.784,5.467 6.242,36.651 19.819,50.765 26.395,55.604 C -2.032,90.461 21.33,78.935 21.691,64.874 22.047,51.342 22.344,0.815 0,0"
                   style="fill:#351c43;fill-opacity:1;fill-rule:nonzero;stroke:none"
                   id="path74" />
              </g>
            </g>
          </g>
        </g>
        <g
           id="g82"
           transform="translate(239.529,340.6085)">
          <path
             d="m 0,0 c -9.705,-7.34 -18.991,-44.087 -16.561,-65.533 2.311,-20.408 39.967,-22.094 62.207,-21.283 8.617,0.314 14.598,9.164 17.775,26.302 2.368,12.774 2.562,27.095 2.308,36.859 C 65.551,-16.787 58.82,-9.658 47.265,-4.096 29.815,4.303 8.17,6.179 0,0 m -8.045,-82.21 c -6.588,3.711 -11.008,8.966 -11.839,16.301 -1.203,10.614 0.227,25.372 3.825,39.477 3.712,14.551 8.83,25.157 14.042,29.099 10.316,7.802 34.366,4.128 50.732,-3.75 C 61.626,-7.3 68.857,-15.284 69.072,-23.567 69.33,-33.492 69.13,-48.064 66.709,-61.123 63.207,-80.01 56.162,-89.779 45.768,-90.157 26.748,-90.851 5.062,-89.594 -8.045,-82.21"
             style="fill:#351c43;fill-opacity:1;fill-rule:nonzero;stroke:none"
             id="path84" />
        </g>
        <g
           id="g86"
           transform="translate(240.8769,304.8612)">
          <path
             d="m 0,0 -9.935,3.91 c -2.245,0.884 -4.763,-0.396 -5.358,-2.734 -2.048,-8.047 -5.184,-24.719 2.918,-28.094 9.819,-4.09 13.244,7.231 14.899,22.772 C 2.714,-2.355 1.675,-0.659 0,0"
             style="fill:#ffffff;fill-opacity:1;fill-rule:nonzero;stroke:none"
             id="path88" />
        </g>
        <g
           id="g90">
          <g
             id="g92" />
          <g
             id="g104">
            <g
               clip-path="url(#clipPath96)"
               opacity="0.350006"
               id="g102">
              <g
                 transform="translate(243.3801,300.7402)"
                 id="g100">
                <path
                   d="m 0,0 c -1.618,-15.544 -5.018,-26.877 -14.845,-22.806 -4.037,1.666 -5.296,6.642 -5.289,12.206 0.824,-1.589 2.002,-2.817 3.645,-3.495 8.799,-3.64 12.449,5.062 14.27,18.088 C -0.721,3.27 0.179,1.674 0,0"
                   style="fill:#351c43;fill-opacity:1;fill-rule:nonzero;stroke:none"
                   id="path98" />
              </g>
            </g>
          </g>
        </g>
        <g
           id="g106"
           transform="translate(240.3415,303.5789)">
          <path
             d="M 0,0 -9.944,3.888 C -10.645,4.162 -11.431,4.122 -12.1,3.777 -12.775,3.43 -13.249,2.834 -13.434,2.1 c -1.332,-5.285 -5.052,-22.434 1.592,-26.179 0.182,-0.103 0.372,-0.195 0.57,-0.277 2.312,-0.957 4.196,-0.97 5.758,-0.039 4.689,2.793 6.336,13.722 7.167,21.7 C 1.774,-1.536 1.093,-0.427 0,0 m -13.236,-26.5 c -7.814,4.401 -5.221,20.099 -2.905,29.282 0.379,1.501 1.385,2.768 2.763,3.477 1.381,0.711 3.003,0.795 4.451,0.229 L 1.017,2.6 C 3.275,1.716 4.68,-0.58 4.429,-2.985 2.99,-16.799 0.364,-24.143 -4.085,-26.793 c -2.339,-1.393 -5.116,-1.441 -8.254,-0.142 -0.313,0.129 -0.612,0.275 -0.897,0.435"
             style="fill:#351c43;fill-opacity:1;fill-rule:nonzero;stroke:none"
             id="path108" />
        </g>
        <g
           id="g110"
           transform="translate(236.5099,340.5836)">
          <path
             d="m 0,0 c 1.234,-0.43 2.425,-0.871 3.627,-1.329 1.197,-0.458 2.389,-0.931 3.574,-1.42 2.369,-0.98 4.717,-2.025 7.007,-3.21 0.411,-0.213 0.571,-0.717 0.359,-1.128 -0.197,-0.382 -0.648,-0.548 -1.04,-0.398 l -0.011,0.004 c -2.334,0.899 -4.73,1.665 -7.145,2.366 -1.209,0.348 -2.422,0.682 -3.639,1 -1.213,0.315 -2.445,0.623 -3.647,0.899 l -0.01,0.002 c -0.901,0.206 -1.465,1.105 -1.258,2.006 0.206,0.902 1.105,1.465 2.006,1.259 C -0.117,0.037 -0.057,0.02 0,0"
             style="fill:#351c43;fill-opacity:1;fill-rule:nonzero;stroke:none"
             id="path112" />
        </g>
        <g
           id="g114"
           transform="translate(331.6562,322.7465)">
          <path
             d="M 0,0 -0.105,16.233 C -0.47,10.639 -0.393,5.198 0,0"
             style="fill:#ffffff;fill-opacity:1;fill-rule:nonzero;stroke:none"
             id="path116" />
        </g>
        <g
           id="g118"
           transform="translate(355.0114,210.2765)">
          <path
             d="m 0,0 c 0,0 -7.609,10.101 -16.904,18.187 -6.094,5.303 -12.913,9.739 -18.787,9.896 0,0 -51.271,-13.644 -58.148,47.69 -2.181,19.454 -0.147,33.013 4.468,42.287 0.648,1.304 1.346,2.518 2.093,3.656 0.784,1.205 1.625,2.314 2.51,3.341 2.435,2.831 5.217,5.02 8.236,6.683 2.291,1.257 4.719,2.211 7.23,2.912 23.276,6.472 54.13,-9.009 54.13,-9.009 -0.449,-2.534 -0.82,-5.007 -1.116,-7.416 -0.571,-4.572 -0.888,-8.908 -1.002,-13.003 -0.032,-1.181 -0.05,-2.337 -0.048,-3.475 -0.009,-13.404 2.12,-23.992 4.329,-31.363 2.375,-7.929 4.841,-12.144 4.841,-12.144 31.297,-3.564 29.557,-30.236 29.557,-30.236 0,0 25.406,7.296 19.269,-12.328 C 36.121,1.16 9.317,-11.106 0,0"
             style="fill:#ffffff;fill-opacity:1;fill-rule:nonzero;stroke:none"
             id="path120" />
        </g>
        <g
           id="g122">
          <g
             id="g124" />
          <g
             id="g136">
            <g
               clip-path="url(#clipPath128)"
               opacity="0.350006"
               id="g134">
              <g
                 transform="translate(355.0114,210.2765)"
                 id="g132">
                <path
                   d="m 0,0 c 0,0 -20.854,27.689 -35.691,28.083 0,0 -51.271,-13.644 -58.148,47.69 -2.181,19.454 -0.147,33.013 4.468,42.287 1.332,2.68 2.878,4.999 4.603,6.997 0.681,0.792 1.386,1.532 2.116,2.224 -0.427,-0.724 -0.836,-1.477 -1.225,-2.261 -4.615,-9.274 -6.649,-22.832 -4.467,-42.287 C -81.468,21.4 -29.936,40.71 -29.936,40.71 -4.5,40.637 -4.425,13.562 3.665,6.067 11.755,-1.428 29.552,3.517 39.409,12.702 32.492,-0.428 8.672,-10.335 0,0"
                   style="fill:#351c43;fill-opacity:1;fill-rule:nonzero;stroke:none"
                   id="path130" />
              </g>
            </g>
          </g>
        </g>
        <g
           id="g138"
           transform="translate(338.2783,308.4531)">
          <path
             d="m 0,0 c 0.44,-1.699 0.706,-3.392 0.994,-5.077 0.34,-1.679 0.525,-3.367 0.834,-5.037 0.143,-0.836 0.259,-1.675 0.389,-2.512 0.136,-0.836 0.307,-1.665 0.444,-2.499 0.272,-1.671 0.64,-3.32 0.952,-4.981 0.71,-3.301 1.5,-6.59 2.562,-9.79 0.265,-0.799 0.524,-1.601 0.823,-2.386 l 0.439,-1.183 0.475,-1.164 c 0.311,-0.779 0.658,-1.539 1.004,-2.295 0.179,-0.373 0.351,-0.755 0.54,-1.116 0.179,-0.361 0.382,-0.747 0.552,-1.049 l -1.254,0.817 c 3.996,-0.454 7.987,-1.349 11.788,-2.872 3.8,-1.498 7.391,-3.716 10.355,-6.627 2.993,-2.886 5.259,-6.488 6.743,-10.332 0.745,-1.924 1.298,-3.916 1.657,-5.94 0.189,-1.011 0.317,-2.032 0.407,-3.059 0.046,-0.514 0.076,-1.03 0.092,-1.551 0.01,-0.26 0.012,-0.523 0.013,-0.786 -10e-4,-0.274 -0.003,-0.514 -0.02,-0.839 l -2.13,1.716 c 1.393,0.378 2.698,0.644 4.064,0.876 1.356,0.221 2.727,0.384 4.116,0.463 1.389,0.08 2.799,0.075 4.229,-0.075 1.427,-0.153 2.883,-0.445 4.311,-1.033 1.417,-0.582 2.827,-1.519 3.841,-2.857 1.026,-1.33 1.549,-2.958 1.706,-4.485 l 0.067,-0.578 0.006,-0.566 c -0.005,-0.374 0.022,-0.761 -0.016,-1.125 -0.074,-0.729 -0.123,-1.471 -0.283,-2.165 l -0.208,-1.055 -0.279,-1.02 c -0.101,-0.34 -0.171,-0.677 -0.299,-1.02 l -0.371,-1.026 c -1.066,-2.703 -2.699,-5.059 -4.532,-7.161 -1.865,-2.079 -3.966,-3.899 -6.208,-5.497 -2.243,-1.601 -4.639,-2.971 -7.152,-4.096 -2.512,-1.125 -5.139,-2.023 -7.87,-2.589 -1.374,-0.252 -2.758,-0.48 -4.177,-0.532 -0.704,-0.059 -1.421,-0.027 -2.134,-0.023 -0.357,0.006 -0.717,0.053 -1.075,0.079 -0.359,0.03 -0.718,0.056 -1.077,0.127 l -1.076,0.182 -1.069,0.274 c -0.358,0.082 -0.707,0.21 -1.056,0.342 -0.346,0.138 -0.705,0.235 -1.039,0.412 -1.38,0.6 -2.636,1.486 -3.753,2.537 l -0.806,0.855 -0.1,0.109 -0.094,0.124 -0.146,0.19 -0.297,0.383 -1.217,1.529 c -0.821,1.014 -1.658,2.019 -2.506,3.013 -1.701,1.985 -3.45,3.93 -5.251,5.82 -1.8,1.89 -3.657,3.72 -5.576,5.472 -1.918,1.75 -3.901,3.426 -6.008,4.896 -2.11,1.464 -4.256,2.824 -6.437,4.045 -2.201,1.228 -4.381,2.224 -6.859,3.086 l -0.049,0.017 c -0.297,0.103 -0.454,0.428 -0.351,0.725 0.069,0.198 0.238,0.334 0.43,0.372 0.689,0.133 1.42,0.262 2.128,0.237 0.355,-0.009 0.72,-0.005 1.077,-0.03 l 1.057,-0.145 c 0.716,-0.086 1.381,-0.304 2.073,-0.478 0.333,-0.112 0.664,-0.226 0.993,-0.349 0.329,-0.122 0.666,-0.236 0.977,-0.389 2.57,-1.103 4.881,-2.628 7.024,-4.299 2.144,-1.673 4.21,-3.408 6.199,-5.218 1.986,-1.813 3.896,-3.696 5.742,-5.634 1.846,-1.938 3.634,-3.926 5.373,-5.955 0.867,-1.017 1.722,-2.043 2.564,-3.084 l 1.253,-1.573 0.31,-0.4 0.156,-0.203 0.055,-0.074 0.07,-0.072 0.559,-0.583 c 0.808,-0.748 1.731,-1.423 2.784,-1.875 0.248,-0.139 0.536,-0.207 0.802,-0.317 0.269,-0.103 0.539,-0.206 0.828,-0.267 l 0.851,-0.221 0.878,-0.147 c 0.29,-0.061 0.592,-0.079 0.892,-0.104 0.3,-0.021 0.597,-0.064 0.901,-0.067 0.608,-10e-4 1.214,-0.034 1.829,0.02 1.225,0.042 2.457,0.248 3.682,0.47 2.447,0.508 4.853,1.326 7.163,2.361 2.312,1.034 4.528,2.302 6.589,3.773 2.06,1.469 3.976,3.134 5.643,4.991 1.634,1.874 3.047,3.938 3.921,6.164 l 0.304,0.838 c 0.106,0.276 0.169,0.589 0.256,0.882 l 0.247,0.892 0.173,0.89 c 0.141,0.597 0.168,1.178 0.234,1.763 0.034,0.293 0.003,0.57 0.011,0.855 v 0.426 l -0.052,0.405 c -0.113,1.091 -0.449,2.069 -1.045,2.841 -0.59,0.776 -1.444,1.373 -2.463,1.794 -2.056,0.839 -4.585,0.998 -7.068,0.858 -1.25,-0.072 -2.508,-0.22 -3.76,-0.425 -1.24,-0.208 -2.528,-0.475 -3.686,-0.791 l -2.236,-0.608 0.106,2.324 c 0.017,0.366 0.018,0.861 0.001,1.305 -0.013,0.455 -0.04,0.914 -0.081,1.373 -0.08,0.918 -0.195,1.838 -0.366,2.747 -0.323,1.823 -0.821,3.613 -1.486,5.332 -1.329,3.434 -3.324,6.602 -5.964,9.145 -2.615,2.566 -5.8,4.548 -9.26,5.912 -3.456,1.385 -7.156,2.226 -10.92,2.652 l -0.846,0.096 -0.408,0.72 c -0.252,0.447 -0.448,0.825 -0.652,1.233 -0.209,0.401 -0.39,0.804 -0.583,1.206 -0.371,0.807 -0.737,1.613 -1.065,2.431 l -0.499,1.224 -0.466,1.234 c -0.324,0.818 -0.605,1.649 -0.893,2.478 -1.122,3.325 -2.095,6.694 -2.87,10.11 -0.339,1.716 -0.715,3.427 -0.937,5.163 -0.125,0.864 -0.262,1.728 -0.351,2.597 -0.082,0.87 -0.177,1.738 -0.246,2.609 -0.086,0.869 -0.13,1.741 -0.13,2.615 -0.017,0.874 -0.029,1.746 -0.012,2.619 0.05,1.746 0.207,3.493 0.468,5.229 0.046,0.309 0.334,0.522 0.643,0.475 0.231,-0.035 0.409,-0.204 0.464,-0.417 z"
             style="fill:#351c43;fill-opacity:1;fill-rule:nonzero;stroke:none"
             id="path140" />
        </g>
        <g
           id="g142"
           transform="translate(341.5747,187.6836)">
          <path
             d="m 0,0 c -6.656,-7.976 -21.342,-9.543 -30.853,-0.64 -6.286,5.883 -8.74,13.544 -9.549,19.594 -0.942,7.075 -0.907,13.992 -5.356,18.605 -5.075,5.257 -19.936,-2.227 -36.901,16.482 -5.293,5.832 -10.262,16.225 -12.097,29.804 -0.594,4.379 -0.859,9.086 -0.703,14.083 0.333,10.794 2.634,22.926 7.851,35.935 2.266,5.641 5.083,11.452 8.526,17.385 1.596,2.757 3.33,5.536 5.207,8.341 2.52,3.766 5.297,7.58 8.354,11.423 l 1.809,-12.451 0.616,-4.228 0.445,-3.043 2.769,-19.051 4.233,-29.116 4.943,-33.988 0.342,-2.356 c 2.034,1.047 4.15,1.917 6.316,2.602 6.597,2.079 13.667,2.434 20.429,0.803 0.144,-0.034 0.283,-0.068 0.425,-0.105 3.151,-0.802 6.283,-2.038 9.031,-3.922 C -6.328,60.784 -2.582,49.319 -3.468,40.779 -3.714,38.375 -4.326,36.206 -5.32,34.468 -7.104,31.352 -9.006,27.899 -9.006,27.899 -6.964,25.876 7.601,9.108 0,0"
             style="fill:#ffffff;fill-opacity:1;fill-rule:nonzero;stroke:none"
             id="path144" />
        </g>
        <g
           id="g146">
          <g
             id="g148" />
          <g
             id="g160">
            <g
               clip-path="url(#clipPath152)"
               opacity="0.350006"
               id="g158">
              <g
                 transform="translate(341.5747,187.6836)"
                 id="g156">
                <path
                   d="m 0,0 c -6.656,-7.976 -21.342,-9.543 -30.853,-0.64 -6.286,5.883 -8.74,13.544 -9.549,19.594 -0.942,7.075 -0.907,13.992 -5.356,18.605 -5.075,5.257 -19.936,-2.227 -36.901,16.482 -5.293,5.832 -10.262,16.225 -12.097,29.804 -0.082,0.613 -0.16,1.232 -0.228,1.861 -0.054,0.491 -0.107,0.986 -0.151,1.486 -0.027,0.284 -0.055,0.568 -0.08,0.855 -0.077,0.936 -0.137,1.886 -0.188,2.851 -0.011,0.236 -0.02,0.476 -0.029,0.716 -0.012,0.276 -0.023,0.546 -0.031,0.814 -0.007,0.301 -0.017,0.6 -0.021,0.899 -0.02,0.909 -0.025,1.828 -0.011,2.756 0.004,0.612 0.019,1.227 0.036,1.845 0.635,20.579 8.412,46.01 29.938,73.084 l 0.168,-1.15 c -20.07,-29.19 -24.575,-55.941 -22.219,-76.031 11.32,-3.896 24.674,-1.924 28.493,-1.226 l -0.142,3.606 c -0.115,2.862 1.328,5.441 3.572,6.912 0.735,0.487 1.558,0.849 2.439,1.068 0.504,0.128 1.028,0.198 1.568,0.22 l 36.635,1.441 c 4.343,0.173 8.035,-3.236 8.203,-7.581 l 0.147,-3.733 c 0.25,0.027 0.499,0.035 0.755,0.03 3.833,-0.077 6.875,-3.244 6.795,-7.075 -0.076,-3.805 -3.203,-6.836 -7.004,-6.796 l 0.077,-1.925 c 0.169,-4.341 -3.245,-8.026 -7.583,-8.197 l -10.002,-0.391 -20.429,-0.803 -6.207,-0.245 c -0.152,-0.006 -0.302,-0.008 -0.451,-10e-4 -4.141,0.068 -7.581,3.388 -7.749,7.579 l -0.115,2.93 c -11.444,-1.11 -20.128,-0.268 -26.274,1.026 2.42,-7.883 5.908,-14.05 9.548,-18.063 16.965,-18.71 31.826,-11.226 36.897,-16.481 4.453,-4.614 4.418,-11.532 5.36,-18.606 0.809,-6.05 3.263,-13.712 9.549,-19.594 C -16.056,0.965 -5.453,0.404 1.998,4.305 1.719,2.754 1.086,1.298 0,0"
                   style="fill:#351c43;fill-opacity:1;fill-rule:nonzero;stroke:none"
                   id="path154" />
              </g>
            </g>
          </g>
        </g>
        <g
           id="g162"
           transform="translate(290.9553,254.957)">
          <path
             d="M 0,0 C 5.715,3.832 12.773,5.759 19.8,5.598 20.68,5.599 21.557,5.513 22.437,5.461 23.311,5.357 24.19,5.278 25.057,5.112 26.798,4.824 28.52,4.428 30.205,3.87 31.892,3.316 33.55,2.629 35.137,1.773 35.93,1.344 36.708,0.878 37.454,0.359 c 0.369,-0.275 0.745,-0.543 1.104,-0.828 0.348,-0.298 0.712,-0.58 1.044,-0.893 2.702,-2.473 4.73,-5.511 6.229,-8.725 1.493,-3.226 2.448,-6.664 2.888,-10.182 0.417,-3.514 0.343,-7.16 -0.806,-10.719 -0.297,-0.886 -0.675,-1.76 -1.142,-2.605 l -1.231,-2.2 -2.46,-4.388 -0.287,1.994 c 0.579,-0.588 1.052,-1.13 1.543,-1.701 0.486,-0.565 0.951,-1.141 1.413,-1.72 0.916,-1.163 1.791,-2.356 2.623,-3.584 1.657,-2.459 3.17,-5.042 4.326,-7.858 0.575,-1.407 1.062,-2.872 1.384,-4.408 0.32,-1.534 0.476,-3.15 0.314,-4.8 -0.157,-1.644 -0.669,-3.322 -1.566,-4.776 -0.933,-1.482 -2.021,-2.576 -3.232,-3.609 -2.434,-2.021 -5.31,-3.404 -8.305,-4.188 -2.999,-0.785 -6.135,-0.978 -9.201,-0.595 -3.066,0.382 -6.065,1.353 -8.77,2.865 -1.353,0.755 -2.631,1.642 -3.813,2.64 l -0.868,0.77 -0.814,0.804 -0.406,0.403 -0.384,0.424 -0.763,0.851 c -0.977,1.171 -1.883,2.399 -2.689,3.689 -0.793,1.297 -1.512,2.637 -2.128,4.021 -1.221,2.771 -2.091,5.677 -2.612,8.636 -0.518,2.982 -0.714,5.842 -1.094,8.646 -0.363,2.788 -0.894,5.492 -2.026,7.802 -0.142,0.286 -0.278,0.578 -0.452,0.842 -0.168,0.267 -0.313,0.552 -0.51,0.797 -0.193,0.246 -0.352,0.522 -0.569,0.748 l -0.311,0.352 c -0.099,0.106 -0.213,0.263 -0.299,0.323 -0.671,0.673 -1.762,1.091 -3.036,1.357 -1.276,0.261 -2.678,0.402 -4.104,0.548 -1.43,0.144 -2.894,0.292 -4.362,0.506 -2.937,0.422 -5.897,1.105 -8.718,2.186 -1.419,0.519 -2.784,1.171 -4.125,1.858 -0.657,0.368 -1.329,0.712 -1.962,1.118 l -0.962,0.59 -0.932,0.632 c -2.478,1.695 -4.756,3.645 -6.845,5.754 -0.525,0.525 -1.023,1.074 -1.535,1.61 -0.51,0.535 -0.988,1.146 -1.482,1.716 -0.479,0.587 -0.909,1.205 -1.365,1.806 -0.438,0.612 -0.831,1.249 -1.248,1.872 -3.169,5.082 -5.359,10.644 -6.863,16.342 l -0.537,2.145 c -0.171,0.716 -0.302,1.441 -0.455,2.161 -0.323,1.438 -0.513,2.898 -0.756,4.349 -0.116,0.726 -0.179,1.459 -0.271,2.188 -0.075,0.731 -0.191,1.459 -0.233,2.192 -0.094,1.465 -0.252,2.929 -0.269,4.397 -0.214,5.868 0.145,11.746 1.012,17.538 1.728,11.598 5.496,22.799 10.538,33.309 l 1.944,3.918 c 0.311,0.66 0.686,1.286 1.026,1.93 l 1.033,1.927 c 0.35,0.639 0.677,1.293 1.047,1.92 l 1.114,1.881 1.128,1.872 0.569,0.933 0.611,0.906 c 0.81,1.211 1.642,2.406 2.475,3.6 0.404,0.605 0.882,1.159 1.32,1.74 0.445,0.575 0.892,1.149 1.356,1.711 0.462,0.562 0.909,1.135 1.386,1.685 0.487,0.542 0.973,1.084 1.479,1.61 0.997,1.063 2.024,2.1 3.1,3.09 0.229,0.211 0.586,0.196 0.797,-0.033 0.167,-0.182 0.193,-0.444 0.081,-0.65 l -0.006,-0.011 c -2.775,-5.123 -6.014,-9.797 -8.993,-14.661 -0.787,-1.187 -1.478,-2.432 -2.235,-3.637 l -1.122,-1.817 c -0.378,-0.603 -0.712,-1.231 -1.071,-1.846 -0.699,-1.239 -1.43,-2.462 -2.087,-3.724 l -1.942,-3.799 c -4.916,-10.25 -8.571,-21.133 -10.241,-32.349 -0.838,-5.601 -1.183,-11.271 -0.977,-16.917 0.014,-1.414 0.168,-2.818 0.258,-4.227 0.039,-0.705 0.152,-1.402 0.224,-2.103 0.088,-0.7 0.148,-1.404 0.259,-2.1 0.234,-1.389 0.414,-2.789 0.724,-4.163 0.147,-0.688 0.271,-1.382 0.435,-2.066 l 0.512,-2.047 c 1.431,-5.431 3.524,-10.706 6.457,-15.409 0.385,-0.572 0.748,-1.163 1.149,-1.722 0.415,-0.545 0.808,-1.112 1.239,-1.641 0.451,-0.516 0.858,-1.045 1.342,-1.552 0.483,-0.505 0.953,-1.025 1.446,-1.518 1.964,-1.983 4.084,-3.794 6.362,-5.351 2.274,-1.563 4.708,-2.866 7.275,-3.83 2.562,-0.981 5.249,-1.605 8.011,-2.003 1.383,-0.202 2.786,-0.344 4.222,-0.489 1.437,-0.149 2.908,-0.288 4.456,-0.603 0.777,-0.175 1.571,-0.367 2.381,-0.728 0.798,-0.355 1.628,-0.82 2.306,-1.513 1.187,-1.197 2.091,-2.533 2.802,-3.974 1.404,-2.885 1.954,-5.934 2.34,-8.838 0.39,-2.904 0.598,-5.802 1.07,-8.498 0.956,-5.423 3.158,-10.632 6.684,-14.767 l 0.68,-0.756 0.34,-0.377 0.362,-0.357 0.722,-0.715 0.748,-0.664 c 1.019,-0.86 2.118,-1.622 3.28,-2.27 2.324,-1.299 4.905,-2.136 7.555,-2.467 2.648,-0.331 5.366,-0.162 7.939,0.512 2.572,0.672 5.005,1.855 7.009,3.52 0.983,0.823 1.929,1.823 2.523,2.786 0.614,1.001 0.972,2.144 1.09,3.363 0.238,2.45 -0.44,5.103 -1.463,7.607 -1.032,2.519 -2.441,4.939 -4.001,7.252 -0.784,1.157 -1.613,2.288 -2.48,3.388 -0.435,0.547 -0.876,1.092 -1.329,1.619 -0.447,0.522 -0.925,1.062 -1.357,1.5 l -0.895,0.908 0.608,1.086 2.477,4.418 1.234,2.205 c 0.345,0.629 0.64,1.302 0.879,2.012 0.933,2.864 1.042,6.112 0.658,9.258 -0.382,3.159 -1.282,6.28 -2.642,9.149 -1.355,2.87 -3.198,5.5 -5.506,7.538 -2.277,2.013 -5.149,3.464 -8.16,4.441 C 27.576,0.936 26.02,1.34 24.445,1.623 23.661,1.788 22.863,1.868 22.071,1.995 21.273,2.066 20.476,2.173 19.672,2.196 13.24,2.549 6.762,1.33 0.51,-0.991 L 0.508,-0.992 C 0.217,-1.1 -0.106,-0.952 -0.214,-0.661 -0.306,-0.413 -0.211,-0.141 0,0"
             style="fill:#351c43;fill-opacity:1;fill-rule:nonzero;stroke:none"
             id="path164" />
        </g>
        <g
           id="g166"
           transform="translate(296.7851,222.1339)">
          <path
             d="m 0,0 c -0.349,0.196 -0.598,0.556 -0.635,0.985 -1.088,12.579 7.643,22.518 16.778,26.787 8.238,3.851 16.558,3.059 21.709,-2.065 0.492,-0.489 0.494,-1.283 0.005,-1.774 C 37.369,23.442 36.575,23.44 36.084,23.928 31.631,28.358 24.574,28.944 17.205,25.5 9.13,21.726 0.885,12.513 1.864,1.201 1.923,0.511 1.413,-0.096 0.722,-0.156 0.462,-0.179 0.212,-0.12 0,0"
             style="fill:#351c43;fill-opacity:1;fill-rule:nonzero;stroke:none"
             id="path168" />
        </g>
        <g
           id="g170"
           transform="translate(333.4334,214.4857)">
          <path
             d="m 0,0 c -0.804,-0.542 -1.558,-0.978 -2.357,-1.418 -0.791,-0.433 -1.596,-0.836 -2.414,-1.209 -1.637,-0.743 -3.328,-1.372 -5.075,-1.805 -1.741,-0.434 -3.549,-0.676 -5.34,-0.561 -0.893,0.063 -1.781,0.196 -2.631,0.458 -0.848,0.262 -1.655,0.628 -2.399,1.084 0.799,-0.354 1.632,-0.602 2.478,-0.744 0.847,-0.142 1.705,-0.153 2.551,-0.1 0.847,0.051 1.685,0.205 2.505,0.41 0.822,0.203 1.627,0.467 2.412,0.783 1.574,0.622 3.076,1.422 4.509,2.32 0.717,0.45 1.416,0.927 2.096,1.427 0.67,0.494 1.36,1.033 1.94,1.55 l 0.011,0.01 C -1.137,2.719 -0.252,2.669 0.262,2.092 0.777,1.515 0.726,0.631 0.149,0.116 0.104,0.075 0.049,0.034 0,0"
             style="fill:#351c43;fill-opacity:1;fill-rule:nonzero;stroke:none"
             id="path172" />
        </g>
        <g
           id="g174"
           transform="translate(342.4437,222.7525)">
          <path
             d="M 0,0 C -0.295,0.166 -0.523,0.451 -0.606,0.807 -3.204,11.933 -2.109,21.221 2.65,28.414 9.467,38.718 21.239,40.873 21.737,40.96 22.419,41.078 23.069,40.622 23.188,39.94 23.306,39.258 22.85,38.609 22.169,38.489 22.057,38.47 10.929,36.408 4.726,27.007 0.377,20.415 -0.596,11.792 1.836,1.378 1.994,0.703 1.575,0.029 0.901,-0.128 0.582,-0.203 0.264,-0.149 0,0"
             style="fill:#351c43;fill-opacity:1;fill-rule:nonzero;stroke:none"
             id="path176" />
        </g>
        <g
           id="g178"
           transform="translate(344.5967,281.0643)">
          <path
             d="m 0,0 c -0.077,-3.83 -3.244,-6.872 -7.074,-6.795 -3.83,0.077 -6.873,3.244 -6.796,7.074 0.077,3.83 3.245,6.872 7.075,6.795 C -2.965,6.997 0.077,3.83 0,0"
             style="fill:#ffffff;fill-opacity:1;fill-rule:nonzero;stroke:none"
             id="path180" />
        </g>
        <g
           id="g182">
          <g
             id="g184" />
          <g
             id="g196">
            <g
               clip-path="url(#clipPath188)"
               opacity="0.350006"
               id="g194">
              <g
                 transform="translate(344.5953,281.0653)"
                 id="g192">
                <path
                   d="m 0,0 c -0.077,-3.83 -3.242,-6.876 -7.072,-6.799 -3.83,0.077 -6.876,3.248 -6.799,7.078 0.022,1.058 0.279,2.062 0.727,2.951 1.066,-2.364 3.425,-4.038 6.191,-4.093 2.767,-0.056 5.191,1.521 6.346,3.841 C -0.195,2.071 0.021,1.058 0,0"
                   style="fill:#351c43;fill-opacity:1;fill-rule:nonzero;stroke:none"
                   id="path190" />
              </g>
            </g>
          </g>
        </g>
        <g
           id="g198"
           transform="translate(340.3725,286.0349)">
          <path
             d="m 0,0 c -0.77,0.434 -1.655,0.689 -2.599,0.708 -3.055,0.062 -5.59,-2.373 -5.651,-5.428 -0.03,-1.479 0.518,-2.882 1.543,-3.949 1.026,-1.068 2.405,-1.672 3.885,-1.701 1.479,-0.03 2.882,0.518 3.949,1.543 1.068,1.025 1.672,2.405 1.702,3.885 C 2.871,-2.832 1.722,-0.97 0,0 m -6.793,-12.099 c -0.703,0.396 -1.352,0.897 -1.927,1.496 -1.542,1.605 -2.366,3.714 -2.321,5.94 0.092,4.593 3.905,8.255 8.498,8.162 C -0.318,3.454 1.756,2.545 3.298,0.941 4.84,-0.664 5.665,-2.774 5.62,-4.999 5.575,-7.224 4.666,-9.298 3.061,-10.84 c -1.605,-1.542 -3.714,-2.366 -5.939,-2.321 -1.396,0.028 -2.732,0.395 -3.915,1.062"
             style="fill:#351c43;fill-opacity:1;fill-rule:nonzero;stroke:none"
             id="path200" />
        </g>
        <g
           id="g202"
           transform="translate(330.0865,264.1456)">
          <path
             d="m 0,0 -36.641,-1.44 c -4.337,-0.172 -8.028,3.237 -8.2,7.58 l -0.765,19.498 c -0.15,3.801 2.447,7.101 6.01,7.978 0.504,0.127 1.029,0.199 1.57,0.222 l 36.635,1.44 c 4.343,0.172 8.034,-3.238 8.2,-7.58 L 7.419,12.255 7.58,8.2 C 7.752,3.858 4.337,0.172 0,0"
             style="fill:#ffffff;fill-opacity:1;fill-rule:nonzero;stroke:none"
             id="path204" />
        </g>
        <g
           id="g206">
          <g
             id="g208" />
          <g
             id="g220">
            <g
               clip-path="url(#clipPath212)"
               opacity="0.350006"
               id="g218">
              <g
                 transform="translate(330.0865,264.1456)"
                 id="g216">
                <path
                   d="m 0,0 -36.641,-1.44 c -4.337,-0.172 -8.028,3.237 -8.2,7.58 l -0.765,19.498 c -0.15,3.801 2.447,7.101 6.01,7.978 2.135,-1.3 3.491,-2.132 3.491,-2.132 2.399,-15.582 2.167,-27.212 26.388,-24.647 8.351,0.884 13.863,3.565 17.136,5.418 L 7.58,8.2 C 7.752,3.858 4.337,0.172 0,0"
                   style="fill:#351c43;fill-opacity:1;fill-rule:nonzero;stroke:none"
                   id="path214" />
              </g>
            </g>
          </g>
        </g>
        <g
           id="g222"
           transform="translate(332.0747,296.9999)">
          <path
             d="m 0,0 c -0.977,0.55 -2.112,0.845 -3.313,0.798 l -36.638,-1.441 c -3.453,-0.136 -6.152,-3.056 -6.016,-6.509 l 0.767,-19.501 c 0.136,-3.453 3.055,-6.153 6.509,-6.016 l 36.638,1.441 c 3.453,0.135 6.152,3.055 6.016,6.509 L 3.196,-5.218 C 3.108,-2.965 1.834,-1.033 0,0 m -43.597,-34.711 c -2.787,1.57 -4.723,4.506 -4.857,7.93 l -0.767,19.501 c -0.207,5.248 3.895,9.685 9.142,9.891 L -3.441,4.053 C 1.807,4.259 6.244,0.158 6.451,-5.09 l 0.767,-19.501 c 0.206,-5.248 -3.895,-9.685 -9.143,-9.892 l -36.638,-1.441 -0.064,1.627 0.064,-1.627 c -1.824,-0.072 -3.55,0.377 -5.034,1.213"
             style="fill:#351c43;fill-opacity:1;fill-rule:nonzero;stroke:none"
             id="path224" />
        </g>
        <g
           id="g226"
           transform="translate(331.5515,264.3476)">
          <path
             d="m 0,0 c -0.471,-0.117 -0.957,-0.185 -1.465,-0.202 l -36.641,-1.44 c -3.178,-0.124 -6.009,1.67 -7.36,4.354 -0.493,0.975 -0.791,2.067 -0.834,3.225 l -0.344,8.663 -0.113,2.858 -0.314,7.978 c -0.172,4.342 3.243,8.028 7.58,8.2 l 7.917,0.309 c -3.622,-0.831 -6.274,-4.157 -6.126,-7.998 l 0.411,-10.532 0.355,-8.971 c 0.172,-4.337 3.863,-7.752 8.199,-7.58 z"
             style="fill:#ffffff;fill-opacity:1;fill-rule:nonzero;stroke:none"
             id="path228" />
        </g>
        <g
           id="g230">
          <g
             id="g232" />
          <g
             id="g244">
            <g
               clip-path="url(#clipPath236)"
               opacity="0.350006"
               id="g242">
              <g
                 transform="translate(331.5515,264.3476)"
                 id="g240">
                <path
                   d="m 0,0 c -0.471,-0.117 -0.957,-0.185 -1.465,-0.202 l -36.641,-1.44 c -4.337,-0.172 -8.028,3.237 -8.194,7.579 l -0.457,11.521 c 1.001,-2 2.755,-4.433 5.415,-4.591 1.459,-0.09 2.848,1.012 4.053,2.548 l 0.355,-8.971 c 0.172,-4.337 3.863,-7.752 8.199,-7.58 z"
                   style="fill:#351c43;fill-opacity:1;fill-rule:nonzero;stroke:none"
                   id="path238" />
              </g>
            </g>
          </g>
        </g>
        <g
           id="g246"
           transform="translate(294.2221,296.4401)">
          <path
             d="M 0,0 -2.097,-0.082 C -5.551,-0.22 -8.251,-3.14 -8.113,-6.591 l 0.767,-19.503 c 0.064,-1.663 0.78,-3.208 2.014,-4.349 1.234,-1.141 2.828,-1.732 4.49,-1.666 l 2.35,0.092 c -1.677,1.698 -2.646,3.92 -2.738,6.306 l -0.767,19.5 C -2.088,-3.902 -1.339,-1.723 0,0 m -5.728,-34.159 c -0.646,0.364 -1.255,0.807 -1.815,1.324 -1.873,1.732 -2.959,4.081 -3.057,6.614 l -0.767,19.501 c -0.209,5.245 3.891,9.683 9.141,9.892 L 5.689,3.482 6.118,0.268 C 3.184,-0.408 1.139,-3.079 1.257,-6.083 l 0.767,-19.501 c 0.065,-1.665 0.78,-3.209 2.014,-4.35 1.234,-1.141 2.829,-1.732 4.491,-1.666 l 28.738,1.133 0.447,-3.21 c -0.587,-0.142 -1.191,-0.224 -1.794,-0.245 l -36.633,-1.442 c -1.774,-0.07 -3.498,0.35 -5.015,1.205"
             style="fill:#351c43;fill-opacity:1;fill-rule:nonzero;stroke:none"
             id="path248" />
        </g>
        <g
           id="g250"
           transform="translate(308.6882,280.9529)">
          <path
             d="m 0,0 c 0.024,-0.721 -0.794,-6.577 -0.794,-6.577 0,0 -1.845,-0.062 -4.109,-0.138 -2.83,-0.095 -5.222,2.757 -5.343,6.371 -0.121,3.614 2.074,6.62 4.903,6.715 1.91,0.064 4.109,0.138 4.109,0.138 0,0 1.195,-5.334 1.234,-6.509"
             style="fill:#349cd8;fill-opacity:1;fill-rule:nonzero;stroke:none"
             id="path252" />
        </g>
        <g
           id="g254">
          <g
             id="g256" />
          <g
             id="g268">
            <g
               clip-path="url(#clipPath260)"
               opacity="0.350006"
               id="g266">
              <g
                 transform="translate(308.6882,280.9529)"
                 id="g264">
                <path
                   d="m 0,0 c 0.024,-0.721 -0.794,-6.577 -0.794,-6.577 0,0 -1.845,-0.062 -4.109,-0.138 -2.83,-0.095 -5.222,2.757 -5.343,6.371 -0.121,3.614 2.074,6.62 4.903,6.715 1.91,0.064 4.109,0.138 4.109,0.138 0,0 1.195,-5.334 1.234,-6.509"
                   style="fill:#351c43;fill-opacity:1;fill-rule:nonzero;stroke:none"
                   id="path262" />
              </g>
            </g>
          </g>
        </g>
        <g
           id="g270"
           transform="translate(306.4541,286.1739)">
          <path
             d="m 0,0 -3.067,-0.103 c -2.133,-0.072 -3.789,-2.503 -3.692,-5.42 0.05,-1.469 0.534,-2.823 1.364,-3.813 0.756,-0.902 1.709,-1.38 2.684,-1.347 l 3.053,0.102 C 0.677,-8.124 0.981,-5.673 0.98,-5.258 0.956,-4.598 0.433,-2.003 0,0 m -5.504,-12.475 c -0.662,0.372 -1.274,0.886 -1.813,1.528 -1.188,1.417 -1.88,3.313 -1.948,5.34 -0.145,4.299 2.598,7.892 6.114,8.011 L 1.997,2.576 2.224,1.562 c 0.204,-0.91 1.222,-5.51 1.263,-6.741 0.026,-0.748 -0.555,-5 -0.805,-6.793 l -0.146,-1.044 -5.163,-0.174 c -1.01,-0.033 -1.989,0.214 -2.877,0.715"
             style="fill:#351c43;fill-opacity:1;fill-rule:nonzero;stroke:none"
             id="path272" />
        </g>
        <g
           id="g274"
           transform="translate(312.7973,281.0909)">
          <path
             d="m 0,0 c 0.121,-3.614 -2.074,-6.62 -4.903,-6.715 -2.83,-0.095 -5.222,2.757 -5.343,6.371 -0.121,3.614 2.074,6.62 4.903,6.715 C -2.513,6.466 -0.121,3.614 0,0"
             style="fill:#349cd8;fill-opacity:1;fill-rule:nonzero;stroke:none"
             id="path276" />
        </g>
        <g
           id="g278">
          <g
             id="g280" />
          <g
             id="g292">
            <g
               clip-path="url(#clipPath284)"
               opacity="0.350006"
               id="g290">
              <g
                 transform="translate(302.5515,280.7455)"
                 id="g288">
                <path
                   d="m 0,0 c 0.12,-3.612 2.512,-6.466 5.341,-6.371 2.833,0.094 5.028,3.102 4.904,6.718 C 10.23,0.835 10.17,1.311 10.073,1.768 9.428,-0.739 7.613,-2.57 5.416,-2.641 2.973,-2.723 0.852,-0.607 0.247,2.306 0.061,1.584 -0.025,0.808 0,0"
                   style="fill:#351c43;fill-opacity:1;fill-rule:nonzero;stroke:none"
                   id="path286" />
              </g>
            </g>
          </g>
        </g>
        <g
           id="g294"
           transform="translate(302.5515,280.7455)">
          <path
             d="m 0,0 c 0.007,-0.246 0.027,-0.488 0.059,-0.726 0.467,2.85 2.407,5.011 4.797,5.09 2.636,0.086 4.897,-2.385 5.282,-5.649 0.089,0.526 0.124,1.07 0.107,1.632 C 10.125,3.959 7.733,6.813 4.904,6.718 2.075,6.62 -0.12,3.616 0,0"
             style="fill:#ffffff;fill-opacity:1;fill-rule:nonzero;stroke:none"
             id="path296" />
        </g>
        <g
           id="g298"
           transform="translate(309.0634,285.8096)">
          <path
             d="m 0,0 c -0.496,0.279 -1.028,0.417 -1.567,0.399 -2.134,-0.071 -3.79,-2.503 -3.692,-5.42 0.098,-2.917 1.913,-5.231 4.048,-5.16 0.974,0.033 1.893,0.574 2.587,1.525 C 2.138,-7.613 2.53,-6.23 2.48,-4.761 2.431,-3.292 1.947,-1.938 1.117,-0.948 0.779,-0.545 0.401,-0.226 0,0 m -3.985,-11.971 c -2.143,1.207 -3.678,3.809 -3.78,6.866 -0.145,4.299 2.598,7.893 6.114,8.011 1.762,0.059 3.428,-0.738 4.69,-2.243 1.188,-1.417 1.88,-3.313 1.948,-5.34 0.068,-2.026 -0.495,-3.965 -1.585,-5.458 -1.159,-1.587 -2.767,-2.493 -4.529,-2.552 -1.016,-0.035 -1.988,0.225 -2.858,0.716"
             style="fill:#351c43;fill-opacity:1;fill-rule:nonzero;stroke:none"
             id="path300" />
        </g>
        <g
           id="g302"
           transform="translate(318.1206,262.8244)">
          <path
             d="m 0,0 c -0.349,0.196 -0.586,0.567 -0.593,0.996 l -0.193,12.277 c -0.018,1.18 0.552,2.282 1.525,2.948 l 4.017,2.752 c 0.336,0.23 0.527,0.61 0.513,1.016 L 4.682,36.36 c -0.023,0.642 0.478,1.181 1.121,1.204 0.642,0.023 1.181,-0.479 1.204,-1.12 L 7.594,20.072 C 7.637,18.865 7.068,17.737 6.071,17.054 L 2.054,14.302 C 1.726,14.078 1.534,13.707 1.541,13.31 L 1.733,1.033 C 1.743,0.39 1.231,-0.139 0.588,-0.149 0.375,-0.152 0.174,-0.098 0,0"
             style="fill:#351c43;fill-opacity:1;fill-rule:nonzero;stroke:none"
             id="path304" />
        </g>
        <g
           id="g306"
           transform="translate(247.0164,292.4889)">
          <path
             d="m 0,0 c 0,0 -3.739,-2.578 -3.579,-6.92 0.185,-5.019 3.854,-7.275 3.854,-7.275 0,0 12.479,-8.07 40.213,-4.824 0,0 6.628,7.777 -1.813,12.914 0,0 -25.203,-5.573 -38.675,6.105"
             style="fill:#ffffff;fill-opacity:1;fill-rule:nonzero;stroke:none"
             id="path308" />
        </g>
        <g
           id="g310">
          <g
             id="g312" />
          <g
             id="g324">
            <g
               clip-path="url(#clipPath316)"
               opacity="0.350006"
               id="g322">
              <g
                 transform="translate(243.4352,285.6671)"
                 id="g320">
                <path
                   d="m 0,0 c -0.001,0 0,0 -0.001,0 0.141,-5.087 3.859,-7.374 3.859,-7.374 0,0 12.477,-8.068 40.212,-4.824 0,0 5.064,5.945 0.702,10.871 C 44.769,-1.358 44.766,-1.389 44.762,-1.42 44.41,-4.577 41.812,-7.03 38.646,-7.301 13.489,-9.455 2.117,-2.103 2.117,-2.103 2.117,-2.103 1.02,-1.43 0,0"
                   style="fill:#351c43;fill-opacity:1;fill-rule:nonzero;stroke:none"
                   id="path318" />
              </g>
            </g>
          </g>
        </g>
        <g
           id="g326"
           transform="translate(248.6579,289.2066)">
          <path
             d="m 0,0 c -0.529,0.298 -1.151,0.375 -1.728,0.211 -0.584,-0.167 -1.046,-0.558 -1.301,-1.101 -0.408,-0.867 -0.598,-1.771 -0.564,-2.687 0.149,-4.035 2.971,-5.879 3.091,-5.955 0.134,-0.087 11.919,-7.38 37.395,-4.78 0.717,0.073 1.349,0.486 1.69,1.105 1.787,3.241 1.428,5.949 -1.068,8.049 -0.465,0.391 -1.091,0.551 -1.719,0.442 -5.283,-0.915 -23.47,-3.285 -35.67,4.64 C 0.085,-0.049 0.043,-0.024 0,0 m -1.75,-12.578 c -0.284,0.16 -0.45,0.265 -0.5,0.298 -0.149,0.091 -4.383,2.759 -4.598,8.583 -0.053,1.44 0.24,2.85 0.871,4.192 0.652,1.387 1.875,2.426 3.356,2.848 1.529,0.436 3.179,0.184 4.521,-0.688 11.204,-7.284 28.352,-5.026 33.34,-4.162 1.577,0.273 3.17,-0.149 4.371,-1.159 3.692,-3.106 4.357,-7.521 1.824,-12.114 -0.857,-1.555 -2.432,-2.591 -4.212,-2.773 -24.088,-2.458 -36.396,3.523 -38.973,4.975"
             style="fill:#351c43;fill-opacity:1;fill-rule:nonzero;stroke:none"
             id="path328" />
        </g>
        <g
           id="g330">
          <g
             id="g332" />
          <g
             id="g344">
            <g
               clip-path="url(#clipPath336)"
               opacity="0.350006"
               id="g342">
              <g
                 transform="translate(320.3658,258.7054)"
                 id="g340">
                <path
                   d="M 0,0 C 0.04,0.517 0.207,3.015 0.503,6.987 0.207,3.015 0.035,0.516 0,0"
                   style="fill:#351c43;fill-opacity:1;fill-rule:nonzero;stroke:none"
                   id="path338" />
              </g>
            </g>
          </g>
        </g>
        <g
           id="g346">
          <g
             id="g348" />
          <g
             id="g360">
            <g
               clip-path="url(#clipPath352)"
               opacity="0.350006"
               id="g358">
              <g
                 transform="translate(320.3565,258.6028)"
                 id="g356">
                <path
                   d="m 0,0 0.005,0.001 c 0,0 0,0.034 0.005,0.096 C -0.001,0.034 0,0 0,0"
                   style="fill:#351c43;fill-opacity:1;fill-rule:nonzero;stroke:none"
                   id="path354" />
              </g>
            </g>
          </g>
        </g>
        <g
           id="g362"
           transform="translate(376.9727,237.0112)">
          <path
             d="m 0,0 c -0.854,-0.266 -1.755,-0.596 -2.622,-0.935 -0.872,-0.345 -1.741,-0.708 -2.589,-1.113 -0.847,-0.407 -1.691,-0.832 -2.496,-1.324 -0.804,-0.491 -1.587,-1.027 -2.301,-1.669 0.538,0.795 1.186,1.525 1.87,2.218 0.686,0.694 1.425,1.33 2.179,1.954 0.755,0.621 1.539,1.204 2.337,1.774 0.806,0.568 1.599,1.108 2.474,1.64 C -0.484,2.948 0.381,2.737 0.784,2.073 1.188,1.41 0.977,0.545 0.313,0.141 0.215,0.082 0.105,0.033 0,0"
             style="fill:#351c43;fill-opacity:1;fill-rule:nonzero;stroke:none"
             id="path364" />
        </g>
        <g
           id="g366"
           transform="translate(286.2161,344.8157)">
          <path
             d="m 0,0 -7.292,-5.842 -7.263,-5.816 -2.901,-2.323 -3.12,-2.498 -6.3,-5.044 c -1.92,-0.555 -3.706,-1.136 -5.374,-1.746 -23.306,-8.509 -22.787,-21.682 -22.787,-21.682 0,0 2.073,-6.685 0.818,-9.926 -1.241,-3.192 -5.674,-3.66 -5.674,-3.66 0,0 -1.852,-10.485 -9.447,-12.419 -5.178,-1.315 -16.002,4.85 -19.063,7.26 -7.56,5.947 -4.997,27.282 -2.946,32.43 11.112,27.904 40.387,33.884 62.827,34.024 2.337,0.018 4.594,-0.03 6.753,-0.124 1.115,-0.047 2.199,-0.106 3.253,-0.177 C -14.645,2.2 -11.194,1.82 -8.353,1.429 -4.382,0.89 -1.598,0.339 -0.507,0.113 -0.174,0.04 0,0 0,0"
             style="fill:#ffffff;fill-opacity:1;fill-rule:nonzero;stroke:none"
             id="path368" />
        </g>
        <g
           id="g370">
          <g
             id="g372" />
          <g
             id="g384">
            <g
               clip-path="url(#clipPath376)"
               opacity="0.350006"
               id="g382">
              <g
                 transform="translate(226.3233,286.2787)"
                 id="g380">
                <path
                   d="m 0,0 c 0,0 -1.852,-10.485 -9.447,-12.419 -5.179,-1.315 -16.003,4.85 -19.063,7.26 -2.031,1.599 -3.334,4.31 -4.108,7.519 0.104,-0.097 0.212,-0.187 0.325,-0.275 3.061,-2.41 17.717,-10.757 22.895,-9.442 3.813,0.971 5.401,3.37 6.036,5.519 0.63,2.129 2.523,3.608 4.743,3.655 C 3.045,1.853 4.704,2.148 5.398,3.076 3.881,0.409 0,0 0,0"
                   style="fill:#351c43;fill-opacity:1;fill-rule:nonzero;stroke:none"
                   id="path378" />
              </g>
            </g>
          </g>
        </g>
        <g
           id="g386">
          <g
             id="g388" />
          <g
             id="g400">
            <g
               clip-path="url(#clipPath392)"
               opacity="0.350006"
               id="g398">
              <g
                 transform="translate(259.3399,323.2928)"
                 id="g396">
                <path
                   d="m 0,0 v 0 c -28.755,-8.303 -28.161,-23.428 -28.161,-23.428 0,0 2.073,-6.685 0.818,-9.927 1.892,7.028 -3.104,7.789 -4.95,13.195 -1.516,4.442 3.857,25.421 31.195,23.605 C 0.672,3.328 1.385,1.109 0,0"
                   style="fill:#351c43;fill-opacity:1;fill-rule:nonzero;stroke:none"
                   id="path394" />
              </g>
            </g>
          </g>
        </g>
        <g
           id="g402">
          <g
             id="g404" />
          <g
             id="g416">
            <g
               clip-path="url(#clipPath408)"
               opacity="0.350006"
               id="g414">
              <g
                 transform="translate(231.9972,289.9382)"
                 id="g412">
                <path
                   d="M 0,0 C -0.06,-0.225 -0.149,-0.41 -0.268,-0.569 -0.167,-0.39 -0.079,-0.2 0,0"
                   style="fill:#351c43;fill-opacity:1;fill-rule:nonzero;stroke:none"
                   id="path410" />
              </g>
            </g>
          </g>
        </g>
        <g
           id="g418"
           transform="translate(286.0932,344.2717)">
          <path
             d="m 0,0 c -7.354,0.228 -14.529,1.083 -21.774,1.38 -7.228,0.387 -14.501,0.226 -21.642,-0.807 -7.13,-1.017 -14.171,-2.782 -20.682,-5.723 -1.627,-0.732 -3.224,-1.527 -4.766,-2.414 -1.555,-0.864 -3.042,-1.839 -4.494,-2.857 -2.879,-2.07 -5.552,-4.421 -7.88,-7.085 -1.187,-1.312 -2.248,-2.73 -3.277,-4.167 -0.985,-1.469 -1.941,-2.961 -2.759,-4.535 -0.855,-1.552 -1.579,-3.175 -2.263,-4.814 l -0.13,-0.306 -0.1,-0.274 c -0.069,-0.175 -0.128,-0.379 -0.19,-0.573 -0.121,-0.397 -0.233,-0.81 -0.334,-1.232 -0.203,-0.843 -0.38,-1.708 -0.527,-2.583 -0.596,-3.502 -0.882,-7.099 -0.867,-10.655 0.015,-1.779 0.114,-3.551 0.333,-5.29 0.223,-1.736 0.552,-3.451 1.087,-5.047 0.541,-1.581 1.265,-3.084 2.287,-4.164 l 0.186,-0.208 0.203,-0.18 c 0.142,-0.119 0.257,-0.239 0.417,-0.363 0.318,-0.247 0.673,-0.496 1.031,-0.738 0.72,-0.487 1.474,-0.956 2.239,-1.406 1.532,-0.899 3.115,-1.727 4.724,-2.466 1.608,-0.734 3.251,-1.389 4.895,-1.849 0.82,-0.228 1.641,-0.408 2.433,-0.501 0.789,-0.095 1.551,-0.082 2.158,0.055 1.446,0.35 2.796,1.152 3.912,2.271 1.125,1.116 2.034,2.529 2.758,4.051 0.363,0.762 0.68,1.555 0.951,2.364 0.135,0.405 0.262,0.814 0.372,1.224 0.11,0.398 0.217,0.847 0.283,1.189 l 0.229,1.198 1.241,0.174 c 0.075,0.011 0.249,0.036 0.384,0.065 0.145,0.026 0.29,0.064 0.436,0.097 0.289,0.077 0.578,0.16 0.852,0.266 0.551,0.204 1.06,0.465 1.48,0.774 0.42,0.309 0.746,0.662 0.97,1.047 0.21,0.381 0.324,0.843 0.402,1.415 0.122,1.159 0.019,2.496 -0.195,3.818 -0.208,1.315 -0.525,2.692 -0.896,3.945 l -0.073,0.248 -0.001,0.183 v 0.244 l 0.009,0.194 0.023,0.373 c 0.022,0.242 0.057,0.467 0.087,0.702 0.056,0.468 0.176,0.898 0.264,1.348 0.113,0.438 0.253,0.862 0.381,1.292 0.129,0.43 0.318,0.829 0.477,1.244 l 0.253,0.615 0.3,0.587 0.608,1.169 0.707,1.1 c 0.243,0.361 0.457,0.746 0.739,1.073 l 0.805,1.016 c 0.271,0.337 0.528,0.687 0.837,0.984 0.598,0.611 1.178,1.248 1.797,1.835 l 1.936,1.661 c 0.313,0.292 0.668,0.519 1.007,0.77 l 1.024,0.745 1.022,0.749 c 0.347,0.237 0.71,0.446 1.065,0.67 l 2.148,1.317 c 0.727,0.415 1.489,0.754 2.238,1.123 0.374,0.185 0.757,0.352 1.135,0.529 0.381,0.167 0.749,0.369 1.147,0.491 1.567,0.549 3.125,1.131 4.738,1.506 1.63,0.321 3.262,0.611 4.933,0.692 0.316,0.015 0.584,-0.229 0.599,-0.545 0.01,-0.21 -0.095,-0.399 -0.259,-0.507 l -0.031,-0.019 c -1.406,-0.913 -2.851,-1.615 -4.299,-2.288 -0.367,-0.155 -0.718,-0.344 -1.072,-0.525 l -1.067,-0.524 c -0.713,-0.342 -1.436,-0.656 -2.154,-0.98 -0.717,-0.322 -1.395,-0.713 -2.1,-1.053 l -1.054,-0.516 c -0.347,-0.178 -0.718,-0.318 -1.05,-0.519 l -2.031,-1.145 c -0.337,-0.193 -0.685,-0.373 -1.013,-0.577 l -0.955,-0.656 c -2.591,-1.696 -4.859,-3.819 -6.656,-6.219 -0.25,-0.285 -0.424,-0.615 -0.633,-0.924 l -0.608,-0.938 -0.508,-0.983 -0.255,-0.491 -0.206,-0.507 c -0.127,-0.341 -0.291,-0.673 -0.392,-1.018 -0.099,-0.345 -0.216,-0.689 -0.306,-1.034 -0.063,-0.343 -0.165,-0.694 -0.202,-1.03 -0.02,-0.166 -0.05,-0.341 -0.064,-0.501 l -0.014,-0.232 -0.007,-0.108 -10e-4,-0.059 -0.074,0.43 c 0.44,-1.489 0.763,-2.906 1.005,-4.415 0.234,-1.498 0.386,-3.037 0.214,-4.728 -0.107,-0.84 -0.321,-1.794 -0.811,-2.669 -0.49,-0.859 -1.171,-1.563 -1.901,-2.098 -0.733,-0.538 -1.514,-0.924 -2.302,-1.218 -0.394,-0.149 -0.793,-0.266 -1.195,-0.372 -0.203,-0.047 -0.404,-0.097 -0.611,-0.136 -0.215,-0.042 -0.395,-0.074 -0.674,-0.108 l 1.471,1.372 c -0.107,-0.559 -0.218,-1.001 -0.349,-1.488 -0.129,-0.474 -0.274,-0.942 -0.429,-1.407 -0.311,-0.929 -0.675,-1.842 -1.101,-2.736 -0.85,-1.782 -1.938,-3.512 -3.419,-4.986 -1.47,-1.475 -3.37,-2.646 -5.5,-3.155 -1.184,-0.265 -2.284,-0.239 -3.312,-0.123 -1.03,0.122 -2.005,0.34 -2.95,0.603 -1.889,0.53 -3.662,1.243 -5.388,2.029 -1.724,0.792 -3.394,1.667 -5.025,2.623 -0.816,0.48 -1.62,0.98 -2.42,1.52 -0.4,0.271 -0.797,0.548 -1.204,0.864 -0.203,0.156 -0.417,0.357 -0.622,0.536 l -0.309,0.279 -0.276,0.301 c -1.498,1.61 -2.363,3.512 -3.009,5.382 -0.63,1.884 -0.989,3.791 -1.234,5.689 -0.238,1.899 -0.343,3.795 -0.359,5.683 -0.015,3.777 0.283,7.52 0.916,11.249 0.157,0.933 0.347,1.865 0.573,2.805 0.113,0.47 0.24,0.942 0.386,1.422 0.077,0.242 0.146,0.479 0.243,0.732 l 0.137,0.372 0.139,0.326 c 0.727,1.745 1.501,3.475 2.414,5.137 0.876,1.682 1.9,3.284 2.957,4.859 1.104,1.544 2.246,3.065 3.52,4.475 2.501,2.861 5.369,5.385 8.445,7.594 1.549,1.087 3.134,2.125 4.785,3.043 1.637,0.941 3.327,1.783 5.044,2.556 6.875,3.102 14.213,4.931 21.587,5.984 7.388,1.016 14.84,1.333 22.263,1.094 3.712,-0.138 7.411,-0.503 11.079,-1.057 0.917,-0.141 1.831,-0.304 2.74,-0.494 L -6.438,3.141 -5.083,2.81 C -3.28,2.349 -1.499,1.822 0.248,1.087 0.536,0.965 0.672,0.634 0.55,0.346 0.457,0.124 0.239,-0.007 0.013,0 Z"
             style="fill:#351c43;fill-opacity:1;fill-rule:nonzero;stroke:none"
             id="path420" />
        </g>
        <g
           id="g422"
           transform="translate(241.9246,314.7806)">
          <path
             d="m 0,0 c -0.514,0.289 -0.807,0.887 -0.682,1.496 1.395,6.828 0.469,12.254 -2.752,16.126 -5.768,6.938 -17.136,6.813 -17.25,6.811 -0.771,-0.014 -1.407,0.599 -1.422,1.369 -0.014,0.77 0.597,1.406 1.367,1.422 0.52,0.01 12.802,0.163 19.441,-7.804 C 2.5,14.863 3.627,8.644 2.053,0.937 1.899,0.182 1.161,-0.305 0.406,-0.151 0.26,-0.121 0.124,-0.07 0,0"
             style="fill:#351c43;fill-opacity:1;fill-rule:nonzero;stroke:none"
             id="path424" />
        </g>
        <g
           id="g426"
           transform="translate(407.3835,297.96)">
          <path
             d="m 0,0 c 0.826,0.121 1.691,0.114 2.518,-0.089 0.829,-0.195 1.58,-0.602 2.198,-1.096 0.62,-0.5 1.116,-1.093 1.5,-1.74 0.377,-0.659 0.68,-1.321 0.742,-2.242 C 6.99,-5.623 6.645,-6.017 6.189,-6.048 5.808,-6.074 5.469,-5.837 5.35,-5.491 l -0.056,0.166 c -0.114,0.333 -0.417,0.82 -0.772,1.177 -0.355,0.371 -0.77,0.675 -1.197,0.875 -0.428,0.199 -0.86,0.309 -1.281,0.297 -0.42,-0.007 -0.827,-0.111 -1.23,-0.267 -0.867,-0.337 -1.843,0.092 -2.181,0.96 -0.337,0.867 0.093,1.843 0.96,2.18 0.118,0.046 0.238,0.078 0.358,0.096 z"
             style="fill:#351c43;fill-opacity:1;fill-rule:nonzero;stroke:none"
             id="path428" />
        </g>
        <g
           id="g430"
           transform="translate(403.0722,293.3276)">
          <path
             d="M 0,0 C 0.998,0.318 2.13,0.215 2.967,-0.157 3.82,-0.52 4.453,-1.05 4.984,-1.598 5.513,-2.151 5.94,-2.741 6.31,-3.352 6.679,-3.978 6.988,-4.57 7.241,-5.349 7.384,-5.787 7.144,-6.257 6.707,-6.399 6.33,-6.522 5.93,-6.362 5.734,-6.037 l -0.056,0.094 c -0.251,0.417 -0.647,0.927 -1.045,1.344 -0.405,0.427 -0.846,0.812 -1.296,1.11 -0.447,0.297 -0.911,0.504 -1.29,0.555 -0.386,0.052 -0.622,-0.039 -0.844,-0.186 -0.782,-0.521 -1.838,-0.309 -2.359,0.474 -0.521,0.782 -0.309,1.838 0.473,2.359 0.133,0.089 0.273,0.156 0.418,0.203 z"
             style="fill:#351c43;fill-opacity:1;fill-rule:nonzero;stroke:none"
             id="path432" />
        </g>
        <g
           id="g434"
           transform="translate(359.113,207.2272)">
          <path
             d="M 0,0 C -0.487,1.196 -0.435,2.754 0.53,4.791 5.184,14.619 29.88,32.127 37.477,23.223 37.38,21.91 37.087,20.42 36.557,18.728 32.571,5.971 11.398,-5.044 0,0"
             style="fill:#838484;fill-opacity:1;fill-rule:nonzero;stroke:none"
             id="path436" />
        </g>
        <g
           id="g438">
          <g
             id="g440" />
          <g
             id="g452">
            <g
               clip-path="url(#clipPath444)"
               opacity="0.350006"
               id="g450">
              <g
                 transform="translate(384.7531,212.6648)"
                 id="g448">
                <path
                   d="m 0,0 c -8.106,-5.619 -18.693,-8.511 -25.64,-5.438 -0.487,1.196 -0.435,2.754 0.53,4.792 2.123,4.484 8.419,10.566 15.363,15.007 C -12.756,11.124 -18.949,2.5 -15.519,-0.956 -12.09,-4.412 -4.925,-0.992 0,0"
                   style="fill:#351c43;fill-opacity:1;fill-rule:nonzero;stroke:none"
                   id="path446" />
              </g>
            </g>
          </g>
        </g>
        <g
           id="g454">
          <g
             id="g456" />
          <g
             id="g468">
            <g
               clip-path="url(#clipPath460)"
               opacity="0.699997"
               id="g466">
              <g
                 transform="translate(388.154,215.3211)"
                 id="g464">
                <path
                   d="m 0,0 c 2.106,2.393 3.704,5 4.542,7.679 0.025,0.08 0.049,0.159 0.073,0.238 0.986,3.242 -1.36,6.577 -4.746,6.698 C -7.146,14.867 -17.387,8.823 -24.405,2.401 -15.714,11.86 2.175,22.47 8.436,15.129 8.339,13.816 8.047,12.326 7.516,10.634 6.318,6.804 3.57,3.127 0,0"
                   style="fill:#ffffff;fill-opacity:1;fill-rule:nonzero;stroke:none"
                   id="path462" />
              </g>
            </g>
          </g>
        </g>
        <g
           id="g470"
           transform="translate(394.0074,230.4416)">
          <path
             d="m 0,0 c -1.286,0.725 -2.999,0.949 -5.115,0.668 -9.719,-1.291 -24.331,-12.612 -27.738,-19.807 -0.527,-1.113 -0.745,-2.062 -0.649,-2.833 4.393,-1.585 10.721,-0.829 17.14,2.081 8.11,3.677 14.559,9.92 16.428,15.903 0.382,1.216 0.641,2.352 0.775,3.39 C 0.585,-0.371 0.304,-0.171 0,0 m -36.188,-24.47 -0.255,0.625 c -0.718,1.762 -0.527,3.827 0.568,6.138 3.814,8.055 19.502,20.253 30.32,21.69 C -0.4,4.668 2.407,2.79 3.855,1.094 L 4.301,0.571 4.25,-0.114 C 4.14,-1.598 3.807,-3.238 3.257,-4.987 c -2.173,-6.956 -9.162,-13.834 -18.238,-17.949 -7.745,-3.512 -15.249,-4.171 -20.59,-1.807 z"
             style="fill:#351c43;fill-opacity:1;fill-rule:nonzero;stroke:none"
             id="path472" />
        </g>
        <g
           id="g474"
           transform="translate(383.8462,227.567)">
          <path
             d="m 0,0 c -1.506,0.848 -2.602,1.553 -2.917,1.758 -0.773,0.505 -0.99,1.541 -0.486,2.314 0.505,0.773 1.541,0.994 2.314,0.487 3.384,-2.207 9.757,-5.557 12.45,-5.151 0.913,0.138 1.765,-0.49 1.903,-1.404 C 13.402,-2.909 12.773,-3.761 11.86,-3.898 8.549,-4.398 3.295,-1.856 0,0"
             style="fill:#351c43;fill-opacity:1;fill-rule:nonzero;stroke:none"
             id="path476" />
        </g>
        <g
           id="g478"
           transform="translate(379.9433,220.5801)">
          <path
             d="m 0,0 c -3.915,2.205 -6.397,4.847 -6.581,5.046 -0.627,0.678 -0.586,1.736 0.092,2.363 0.678,0.627 1.736,0.585 2.361,-0.09 0.072,-0.078 7.27,-7.697 16.028,-6.929 0.92,0.081 1.731,-0.6 1.811,-1.52 0.081,-0.919 -0.599,-1.731 -1.519,-1.811 C 7.473,-3.355 3.244,-1.828 0,0"
             style="fill:#351c43;fill-opacity:1;fill-rule:nonzero;stroke:none"
             id="path480" />
        </g>
        <g
           id="g482"
           transform="translate(373.7536,215.3632)">
          <path
             d="m 0,0 c -5.038,2.838 -6.557,6.092 -6.65,6.301 -0.376,0.843 0.002,1.832 0.845,2.208 0.838,0.375 1.82,0.003 2.202,-0.829 0.064,-0.132 3.175,-6.267 15.748,-8.072 0.914,-0.13 1.549,-0.978 1.418,-1.892 C 13.432,-3.198 12.584,-3.833 11.67,-3.701 6.517,-2.962 2.738,-1.542 0,0"
             style="fill:#351c43;fill-opacity:1;fill-rule:nonzero;stroke:none"
             id="path484" />
        </g>
        <g
           id="g486"
           transform="translate(368.0723,208.5025)">
          <path
             d="m 0,0 c -4.913,2.767 -6.918,6.902 -7.031,7.143 -0.394,0.835 -0.035,1.832 0.8,2.225 0.834,0.393 1.827,0.037 2.223,-0.795 C -3.87,8.287 -0.746,2.018 7.579,1.013 8.496,0.902 9.15,0.07 9.039,-0.847 8.929,-1.764 8.096,-2.417 7.179,-2.307 4.298,-1.959 1.926,-1.085 0,0"
             style="fill:#351c43;fill-opacity:1;fill-rule:nonzero;stroke:none"
             id="path488" />
        </g>
        <g
           id="g490"
           transform="translate(288.1594,314.8177)">
          <path
             d="m 0,0 c -8.948,11.286 -0.166,35.238 4.831,39.245 4.998,4.006 1.657,6.216 1.657,6.216 0,0 -13.342,5.874 -20.848,-10.908 -7.505,-16.783 -1.326,-34.877 1.053,-39.047"
             style="fill:#8b59a0;fill-opacity:1;fill-rule:nonzero;stroke:#231916;stroke-width:3.005;stroke-linecap:butt;stroke-linejoin:miter;stroke-miterlimit:10;stroke-dasharray:none;stroke-opacity:1"
             id="path492" />
        </g>
        <g
           id="g494"
           transform="translate(260.9711,401.3703)">
          <path
             d="m 0,0 c 0,0 -4.922,-8.707 -2.776,-13.25 2.145,-4.543 10.095,-6.689 10.095,-6.689 0,0 3.66,12.62 -7.319,19.939"
             style="fill:#79be49;fill-opacity:1;fill-rule:nonzero;stroke:none"
             id="path496" />
        </g>
        <g
           id="g498"
           transform="translate(260.9711,401.3703)">
          <path
             d="m 0,0 c 0,0 -4.922,-8.707 -2.776,-13.25 2.145,-4.543 10.095,-6.689 10.095,-6.689 0,0 3.66,12.62 -7.319,19.939 z"
             style="fill:none;stroke:#231916;stroke-width:2.302;stroke-linecap:butt;stroke-linejoin:miter;stroke-miterlimit:10;stroke-dasharray:none;stroke-opacity:1"
             id="path500" />
        </g>
        <g
           id="g502"
           transform="translate(253.0307,396.7067)">
          <path
             d="m 0,0 c 0,0 -3.156,-8.799 -2.104,-12.05 1.052,-3.252 5.451,-10.807 10.711,-12.911 5.26,-2.104 4.591,16.832 3.826,17.31 C 11.668,-7.173 1.626,-2.773 0,0"
             style="fill:#79be49;fill-opacity:1;fill-rule:nonzero;stroke:none"
             id="path504" />
        </g>
        <g
           id="g506"
           transform="translate(253.0307,396.7067)">
          <path
             d="m 0,0 c 0,0 -3.156,-8.799 -2.104,-12.05 1.052,-3.252 5.451,-10.807 10.711,-12.911 5.26,-2.104 4.591,16.832 3.826,17.31 C 11.668,-7.173 1.626,-2.773 0,0 Z"
             style="fill:none;stroke:#231916;stroke-width:2.302;stroke-linecap:butt;stroke-linejoin:miter;stroke-miterlimit:10;stroke-dasharray:none;stroke-opacity:1"
             id="path508" />
        </g>
        <g
           id="g510"
           transform="translate(243.6583,372.7019)">
          <path
             d="M 0,0 C 0,0 1.913,-15.397 20.944,-8.894 L 17.98,5.164 c 0,0 -5.632,1.388 -10.329,-2.008 0,0 -6.503,-3.73 -7.651,-3.156"
             style="fill:#79be49;fill-opacity:1;fill-rule:nonzero;stroke:none"
             id="path512" />
        </g>
        <g
           id="g514"
           transform="translate(243.6583,372.7019)">
          <path
             d="M 0,0 C 0,0 1.913,-15.397 20.944,-8.894 L 17.98,5.164 c 0,0 -5.632,1.388 -10.329,-2.008 0,0 -6.503,-3.73 -7.651,-3.156 z"
             style="fill:none;stroke:#231916;stroke-width:2.302;stroke-linecap:butt;stroke-linejoin:miter;stroke-miterlimit:10;stroke-dasharray:none;stroke-opacity:1"
             id="path516" />
        </g>
        <g
           id="g518"
           transform="translate(261.588,364.5071)">
          <path
             d="m 0,0 c 0,0 -4.814,-4.256 0,-14.581 0,0 6.628,1.255 7.116,6.767 C 7.605,-2.302 0,0 0,0"
             style="fill:#79be49;fill-opacity:1;fill-rule:nonzero;stroke:none"
             id="path520" />
        </g>
        <g
           id="g522"
           transform="translate(261.588,364.5071)">
          <path
             d="m 0,0 c 0,0 -4.814,-4.256 0,-14.581 0,0 6.628,1.255 7.116,6.767 C 7.605,-2.302 0,0 0,0 Z"
             style="fill:none;stroke:#231916;stroke-width:2.302;stroke-linecap:butt;stroke-linejoin:miter;stroke-miterlimit:10;stroke-dasharray:none;stroke-opacity:1"
             id="path524" />
        </g>
        <g
           id="g526"
           transform="translate(288.1998,418.2079)">
          <path
             d="m 0,0 c 0,0 3.229,-4.748 3.608,-8.261 l 5.793,1.994 c 0,0 -2.659,5.222 -9.401,6.267"
             style="fill:#8ac34e;fill-opacity:1;fill-rule:nonzero;stroke:none"
             id="path528" />
        </g>
        <g
           id="g530"
           transform="translate(288.1998,418.2079)">
          <path
             d="m 0,0 c 0,0 3.229,-4.748 3.608,-8.261 l 5.793,1.994 c 0,0 -2.659,5.222 -9.401,6.267 z"
             style="fill:none;stroke:#231916;stroke-width:2.302;stroke-linecap:butt;stroke-linejoin:miter;stroke-miterlimit:10;stroke-dasharray:none;stroke-opacity:1"
             id="path532" />
        </g>
        <g
           id="g534"
           transform="translate(281.8376,412.0357)">
          <path
             d="m 0,0 c 0,0 1.709,-2.849 1.139,-4.653 l 3.419,2.089 C 4.558,-2.564 2.659,-0.38 0,0"
             style="fill:#8ac34e;fill-opacity:1;fill-rule:nonzero;stroke:none"
             id="path536" />
        </g>
        <g
           id="g538"
           transform="translate(281.8376,412.0357)">
          <path
             d="m 0,0 c 0,0 1.709,-2.849 1.139,-4.653 l 3.419,2.089 C 4.558,-2.564 2.659,-0.38 0,0 Z"
             style="fill:none;stroke:#231916;stroke-width:2.302;stroke-linecap:butt;stroke-linejoin:miter;stroke-miterlimit:10;stroke-dasharray:none;stroke-opacity:1"
             id="path540" />
        </g>
        <g
           id="g542"
           transform="translate(287.9047,355.205)">
          <path
             d="m 0,0 c 0,0 2.492,1.994 3.987,1.894 1.495,-0.1 7.032,-1.823 8.358,-0.354 0.688,0.764 0.208,2.336 -0.085,5.438 0,0 8.274,-7.476 4.287,-9.47 C 12.56,-4.486 9.669,-3.289 8.971,-8.273 8.273,-13.257 0,0 0,0"
             style="fill:#d04693;fill-opacity:1;fill-rule:nonzero;stroke:none"
             id="path544" />
        </g>
        <g
           id="g546"
           transform="translate(287.9047,355.205)">
          <path
             d="m 0,0 c 0,0 2.492,1.994 3.987,1.894 1.495,-0.1 7.032,-1.823 8.358,-0.354 0.688,0.764 0.208,2.336 -0.085,5.438 0,0 8.274,-7.476 4.287,-9.47 C 12.56,-4.486 9.669,-3.289 8.971,-8.273 8.273,-13.257 0,0 0,0 Z"
             style="fill:none;stroke:#231916;stroke-width:2.302;stroke-linecap:butt;stroke-linejoin:miter;stroke-miterlimit:10;stroke-dasharray:none;stroke-opacity:1"
             id="path548" />
        </g>
        <g
           id="g550"
           transform="translate(289.4143,353.1686)">
          <path
             d="M 0,0 5.769,4.057 3.876,-3.065 Z"
             style="fill:#ffffff;fill-opacity:1;fill-rule:nonzero;stroke:none"
             id="path552" />
        </g>
        <g
           id="g554"
           transform="translate(289.4143,353.1686)">
          <path
             d="M 0,0 5.769,4.057 3.876,-3.065 Z"
             style="fill:none;stroke:#231916;stroke-width:2.302;stroke-linecap:butt;stroke-linejoin:miter;stroke-miterlimit:10;stroke-dasharray:none;stroke-opacity:1"
             id="path556" />
        </g>
        <g
           id="g558"
           transform="translate(304.2886,354.3406)">
          <path
             d="m 0,0 -5.679,-8.203 8.023,-3.156 z"
             style="fill:#ffffff;fill-opacity:1;fill-rule:nonzero;stroke:none"
             id="path560" />
        </g>
        <g
           id="g562"
           transform="translate(304.2886,354.3406)">
          <path
             d="m 0,0 -5.679,-8.203 8.023,-3.156 z"
             style="fill:none;stroke:#231916;stroke-width:2.302;stroke-linecap:butt;stroke-linejoin:miter;stroke-miterlimit:10;stroke-dasharray:none;stroke-opacity:1"
             id="path564" />
        </g>
        <g
           id="g566"
           transform="translate(317.0896,353.0785)">
          <path
             d="m 0,0 -8.654,-9.826 9.195,-1.803 z"
             style="fill:#ffffff;fill-opacity:1;fill-rule:nonzero;stroke:none"
             id="path568" />
        </g>
        <g
           id="g570"
           transform="translate(317.0896,353.0785)">
          <path
             d="m 0,0 -8.654,-9.826 9.195,-1.803 z"
             style="fill:none;stroke:#231916;stroke-width:2.302;stroke-linecap:butt;stroke-linejoin:miter;stroke-miterlimit:10;stroke-dasharray:none;stroke-opacity:1"
             id="path572" />
        </g>
        <g
           id="g574"
           transform="translate(328.358,350.3741)">
          <path
             d="m 0,0 -4.147,-9.105 8.745,0.631 z"
             style="fill:#ffffff;fill-opacity:1;fill-rule:nonzero;stroke:none"
             id="path576" />
        </g>
        <g
           id="g578"
           transform="translate(328.358,350.3741)">
          <path
             d="m 0,0 -4.147,-9.105 8.745,0.631 z"
             style="fill:none;stroke:#231916;stroke-width:2.302;stroke-linecap:butt;stroke-linejoin:miter;stroke-miterlimit:10;stroke-dasharray:none;stroke-opacity:1"
             id="path580" />
        </g>
        <g
           id="g582"
           transform="translate(343.5929,361.7327)">
          <path
             d="m 0,0 -4.778,-11.899 9.736,-2.434 z"
             style="fill:#ffffff;fill-opacity:1;fill-rule:nonzero;stroke:none"
             id="path584" />
        </g>
        <g
           id="g586"
           transform="translate(343.5929,361.7327)">
          <path
             d="m 0,0 -4.778,-11.899 9.736,-2.434 z"
             style="fill:none;stroke:#231916;stroke-width:2.302;stroke-linecap:butt;stroke-linejoin:miter;stroke-miterlimit:10;stroke-dasharray:none;stroke-opacity:1"
             id="path588" />
        </g>
        <g
           id="g590"
           transform="translate(337.553,357.9465)">
          <path
             d="m 0,0 -0.451,-14.784 9.376,6.31 z"
             style="fill:#ffffff;fill-opacity:1;fill-rule:nonzero;stroke:none"
             id="path592" />
        </g>
        <g
           id="g594"
           transform="translate(337.553,357.9465)">
          <path
             d="m 0,0 -0.451,-14.784 9.376,6.31 z"
             style="fill:none;stroke:#231916;stroke-width:2.302;stroke-linecap:butt;stroke-linejoin:miter;stroke-miterlimit:10;stroke-dasharray:none;stroke-opacity:1"
             id="path596" />
        </g>
        <g
           id="g598"
           transform="translate(291.6339,368.8473)">
          <path
             d="m 0,0 -1.095,-5.582 8.757,4.05 z"
             style="fill:#ffffff;fill-opacity:1;fill-rule:nonzero;stroke:none"
             id="path600" />
        </g>
        <g
           id="g602"
           transform="translate(291.6339,368.8473)">
          <path
             d="m 0,0 -1.095,-5.582 8.757,4.05 z"
             style="fill:none;stroke:#231916;stroke-width:2.302;stroke-linecap:butt;stroke-linejoin:miter;stroke-miterlimit:10;stroke-dasharray:none;stroke-opacity:1"
             id="path604" />
        </g>
        <g
           id="g606"
           transform="translate(301.9228,366.8771)">
          <path
             d="m 0,0 3.612,-9.194 5.035,8.537 z"
             style="fill:#ffffff;fill-opacity:1;fill-rule:nonzero;stroke:none"
             id="path608" />
        </g>
        <g
           id="g610"
           transform="translate(301.9228,366.8771)">
          <path
             d="m 0,0 3.612,-9.194 5.035,8.537 z"
             style="fill:none;stroke:#231916;stroke-width:2.302;stroke-linecap:butt;stroke-linejoin:miter;stroke-miterlimit:10;stroke-dasharray:none;stroke-opacity:1"
             id="path612" />
        </g>
        <g
           id="g614"
           transform="translate(315.9333,365.5636)">
          <path
             d="M 0,0 6.896,-11.821 12.04,1.532 Z"
             style="fill:#ffffff;fill-opacity:1;fill-rule:nonzero;stroke:none"
             id="path616" />
        </g>
        <g
           id="g618"
           transform="translate(315.9333,365.5636)">
          <path
             d="M 0,0 6.896,-11.821 12.04,1.532 Z"
             style="fill:none;stroke:#231916;stroke-width:2.302;stroke-linecap:butt;stroke-linejoin:miter;stroke-miterlimit:10;stroke-dasharray:none;stroke-opacity:1"
             id="path620" />
        </g>
        <g
           id="g622"
           transform="translate(333.0085,370.1608)">
          <path
             d="M 0,0 0.328,-11.712 9.851,2.299 Z"
             style="fill:#ffffff;fill-opacity:1;fill-rule:nonzero;stroke:none"
             id="path624" />
        </g>
        <g
           id="g626"
           transform="translate(333.0085,370.1608)">
          <path
             d="M 0,0 0.328,-11.712 9.851,2.299 Z"
             style="fill:none;stroke:#231916;stroke-width:2.302;stroke-linecap:butt;stroke-linejoin:miter;stroke-miterlimit:10;stroke-dasharray:none;stroke-opacity:1"
             id="path628" />
        </g>
        <g
           id="g630"
           transform="translate(342.6407,374.2107)">
          <path
             d="m 0,0 4.159,-7.224 0.876,9.96 z"
             style="fill:#ffffff;fill-opacity:1;fill-rule:nonzero;stroke:none"
             id="path632" />
        </g>
        <g
           id="g634"
           transform="translate(342.6407,374.2107)">
          <path
             d="m 0,0 4.159,-7.224 0.876,9.96 z"
             style="fill:none;stroke:#231916;stroke-width:2.302;stroke-linecap:butt;stroke-linejoin:miter;stroke-miterlimit:10;stroke-dasharray:none;stroke-opacity:1"
             id="path636" />
        </g>
        <g
           id="g638"
           transform="translate(339.9182,390.3495)">
          <path
             d="M 0,0 C 0,0 -18.341,33.086 -52.686,20.943 -85.083,9.49 -78.029,-27.326 -73.629,-36.488 c 4.399,-9.161 23.397,-43.032 63.975,-20.452 0,0 -42.214,7.526 -47.613,18.653 -5.4,11.126 -11.781,30.433 -7.854,28.961 3.927,-1.473 46.141,-17.999 52.849,-13.417 C -5.563,-18.162 8.672,-12.599 0,0"
             style="fill:#954e9a;fill-opacity:1;fill-rule:nonzero;stroke:none"
             id="path640" />
        </g>
        <g
           id="g642"
           transform="translate(339.9182,390.3495)">
          <path
             d="M 0,0 C 0,0 -18.341,33.086 -52.686,20.943 -85.083,9.49 -78.029,-27.326 -73.629,-36.488 c 4.399,-9.161 23.397,-43.032 63.975,-20.452 0,0 -42.214,7.526 -47.613,18.653 -5.4,11.126 -11.781,30.433 -7.854,28.961 3.927,-1.473 46.141,-17.999 52.849,-13.417 C -5.563,-18.162 8.672,-12.599 0,0 Z"
             style="fill:none;stroke:#231916;stroke-width:2.302;stroke-linecap:butt;stroke-linejoin:miter;stroke-miterlimit:10;stroke-dasharray:none;stroke-opacity:1"
             id="path644" />
        </g>
        <g
           id="g646"
           transform="translate(340.4253,390.1824)">
          <path
             d="m 0,0 c 0,0 5.862,-8.288 -2.021,-12.735 -7.884,-4.447 -12.937,-6.67 -24.459,-6.468 -9.859,0.173 -28.892,6.857 -36.842,11.442 -1.556,0.898 -3.52,-0.081 -3.757,-1.861 -0.753,-5.659 -0.881,-16.447 6.437,-26.157 10.511,-13.948 32.342,-21.831 49.12,-20.214 16.778,1.617 29.917,12.735 18.395,19.608 0,0 -2.628,-13.342 -23.651,-12.533 -21.022,0.809 -41.438,8.894 -47.098,34.97 0,0 23.044,-12.33 40.63,-11.522 0,0 33.353,1.617 33.353,17.991 C 10.107,-1.011 0,0 0,0"
             style="fill:#71bd61;fill-opacity:1;fill-rule:nonzero;stroke:none"
             id="path648" />
        </g>
        <g
           id="g650"
           transform="translate(340.4253,390.1824)">
          <path
             d="m 0,0 c 0,0 5.862,-8.288 -2.021,-12.735 -7.884,-4.447 -12.937,-6.67 -24.459,-6.468 -9.859,0.173 -28.892,6.857 -36.842,11.442 -1.556,0.898 -3.52,-0.081 -3.757,-1.861 -0.753,-5.659 -0.881,-16.447 6.437,-26.157 10.511,-13.948 32.342,-21.831 49.12,-20.214 16.778,1.617 29.917,12.735 18.395,19.608 0,0 -2.628,-13.342 -23.651,-12.533 -21.022,0.809 -41.438,8.894 -47.098,34.97 0,0 23.044,-12.33 40.63,-11.522 0,0 33.353,1.617 33.353,17.991 C 10.107,-1.011 0,0 0,0 Z"
             style="fill:none;stroke:#231916;stroke-width:2.302;stroke-linecap:butt;stroke-linejoin:miter;stroke-miterlimit:10;stroke-dasharray:none;stroke-opacity:1"
             id="path652" />
        </g>
        <g
           id="g654"
           transform="translate(313.4322,395.3234)">
          <path
             d="m 0,0 c 0,0 8.327,12.609 6.423,18.794 0,0 9.516,-7.851 6.899,-23.79 0,0 -8.919,-5.27 -13.322,4.996"
             style="fill:#8ac34e;fill-opacity:1;fill-rule:nonzero;stroke:none"
             id="path656" />
        </g>
        <g
           id="g658"
           transform="translate(313.4322,395.3234)">
          <path
             d="m 0,0 c 0,0 8.327,12.609 6.423,18.794 0,0 9.516,-7.851 6.899,-23.79 0,0 -8.919,-5.27 -13.322,4.996 z"
             style="fill:none;stroke:#231916;stroke-width:2.302;stroke-linecap:butt;stroke-linejoin:miter;stroke-miterlimit:10;stroke-dasharray:none;stroke-opacity:1"
             id="path660" />
        </g>
        <g
           id="g662"
           transform="translate(303.0132,417.5432)">
          <path
             d="m 0,0 c 0,0 2.754,-9.116 1.899,-13.009 0,0 4.843,-3.799 8.736,-1.33 C 14.529,-11.87 5.128,-1.234 0,0"
             style="fill:#8ac34e;fill-opacity:1;fill-rule:nonzero;stroke:none"
             id="path664" />
        </g>
        <g
           id="g666"
           transform="translate(303.0132,417.5432)">
          <path
             d="m 0,0 c 0,0 2.754,-9.116 1.899,-13.009 0,0 4.843,-3.799 8.736,-1.33 C 14.529,-11.87 5.128,-1.234 0,0 Z"
             style="fill:none;stroke:#231916;stroke-width:2.302;stroke-linecap:butt;stroke-linejoin:miter;stroke-miterlimit:10;stroke-dasharray:none;stroke-opacity:1"
             id="path668" />
        </g>
        <g
           id="g670"
           transform="translate(357.3496,392.0439)">
          <path
             d="m 0,0 c 0,0 -21.38,35.15 -47.108,34.788 -25.729,-0.363 -56.168,-6.523 -66.677,-45.297 -10.508,-38.774 29.465,-73.452 56.405,-70.426 26.941,3.025 29.477,7.736 32.376,9.548 0,0 -17.997,-22.232 -45.538,-16.072 -27.54,6.16 -50.02,17.911 -61.254,44.001 -11.233,26.091 0.98,63.026 15.475,72.085 14.495,9.06 20.655,22.83 43.122,21.743 C -50.732,49.283 -13.045,39.499 0,0"
             style="fill:#ffffff;fill-opacity:1;fill-rule:nonzero;stroke:none"
             id="path672" />
        </g>
        <g
           id="g674">
          <g
             id="g676" />
          <g
             id="g688">
            <g
               clip-path="url(#clipPath680)"
               opacity="0.100006"
               id="g686">
              <g
                 transform="translate(349.1322,338.1007)"
                 id="g684">
                <path
                   d="M 0,0 C -51.22,-76.402 -159.838,-9.072 -118.716,69.388 -68.14,148.84 44.07,79.137 0,0"
                   style="fill:#ffffff;fill-opacity:1;fill-rule:nonzero;stroke:none"
                   id="path682" />
              </g>
            </g>
          </g>
        </g>
        <g
           id="g690"
           transform="translate(349.1323,338.1006)">
          <path
             d="m 0,0 h 0.005 z m -117.588,68.735 c -20.991,-40.111 -1.986,-75.378 24.567,-91.175 27.18,-16.169 66.132,-15.288 91.91,23.12 22.503,40.461 3.486,76.33 -23.715,92.542 -26.937,16.056 -67.447,15.237 -92.762,-24.487 m 59.515,-103.606 c -12.457,0 -24.994,3.48 -36.279,10.194 -15.138,9.005 -26.342,22.787 -31.549,38.806 -5.821,17.91 -3.736,37.227 6.032,55.863 l 0.055,0.095 c 11.878,18.661 28.044,30.538 46.749,34.348 16.588,3.378 34.193,0.19 49.572,-8.976 C -8.082,86.274 3.225,72.245 8.344,55.958 14.082,37.705 11.589,18.136 1.138,-0.634 L 1.081,-0.725 c -12.044,-17.966 -28.158,-29.358 -46.597,-32.943 -4.142,-0.805 -8.345,-1.203 -12.557,-1.203"
             style="fill:#351c43;fill-opacity:1;fill-rule:nonzero;stroke:none"
             id="path692" />
        </g>
        <g
           id="g694"
           transform="translate(349.1323,338.1006)">
          <path
             d="m 0,0 h 0.005 z m -117.134,68.472 c -20.82,-39.803 -1.964,-74.789 24.381,-90.461 26.962,-16.04 65.608,-15.159 91.194,22.944 22.314,40.146 3.45,75.733 -23.535,91.817 -26.722,15.926 -66.911,15.108 -92.04,-24.3 m 59.061,-103.867 c -12.551,0 -25.18,3.504 -36.547,10.267 -15.248,9.071 -26.534,22.955 -31.78,39.095 -5.866,18.047 -3.768,37.505 6.066,56.268 l 0.077,0.133 c 11.957,18.784 28.24,30.742 47.088,34.58 16.715,3.405 34.453,0.195 49.944,-9.038 C -7.702,86.658 3.687,72.525 8.845,56.115 14.626,37.721 12.12,18.01 1.596,-0.889 L 1.517,-1.017 c -12.124,-18.085 -28.354,-29.553 -46.933,-33.165 -4.175,-0.812 -8.412,-1.213 -12.657,-1.213"
             style="fill:#293855;fill-opacity:1;fill-rule:nonzero;stroke:none"
             id="path696" />
        </g>
        <g
           id="g698"
           transform="translate(349.1323,338.1006)">
          <path
             d="m 0,0 h 0.005 z m -117.134,68.472 c -20.82,-39.803 -1.964,-74.789 24.381,-90.461 26.962,-16.04 65.608,-15.159 91.194,22.944 22.314,40.146 3.45,75.733 -23.535,91.817 -26.722,15.926 -66.911,15.108 -92.04,-24.3 m 59.061,-103.867 c -12.551,0 -25.18,3.504 -36.547,10.267 -15.248,9.071 -26.534,22.955 -31.78,39.095 -5.866,18.047 -3.768,37.505 6.066,56.268 l 0.077,0.133 c 11.957,18.784 28.24,30.742 47.088,34.58 16.715,3.405 34.453,0.195 49.944,-9.038 C -7.702,86.658 3.687,72.525 8.845,56.115 14.626,37.721 12.12,18.01 1.596,-0.889 L 1.517,-1.017 c -12.124,-18.085 -28.354,-29.553 -46.933,-33.165 -4.175,-0.812 -8.412,-1.213 -12.657,-1.213"
             style="fill:#351c43;fill-opacity:1;fill-rule:nonzero;stroke:none"
             id="path700" />
        </g>
        <g
           id="g702">
          <g
             id="g704" />
          <g
             id="g716">
            <g
               clip-path="url(#clipPath708)"
               opacity="0.0500031"
               id="g714">
              <g
                 transform="translate(338.2014,324.2823)"
                 id="g712">
                <path
                   d="M 0,0 C -69.427,-41.253 -128.722,39.727 -76.111,86.966 -13.966,136.297 56.196,59.924 0,0"
                   style="fill:#125dab;fill-opacity:1;fill-rule:nonzero;stroke:none"
                   id="path710" />
              </g>
            </g>
          </g>
        </g>
        <g
           id="g718">
          <g
             id="g720" />
          <g
             id="g732">
            <g
               clip-path="url(#clipPath724)"
               opacity="0.0500031"
               id="g730">
              <g
                 transform="translate(356.6469,372.1659)"
                 id="g728">
                <path
                   d="M 0,0 C 0.528,-72.989 -103.839,-79.39 -115.274,-12.739 -81.708,-51.924 -19.455,-35.379 0,0"
                   style="fill:#21112b;fill-opacity:1;fill-rule:nonzero;stroke:none"
                   id="path726" />
              </g>
            </g>
          </g>
        </g>
        <g
           id="g734"
           transform="translate(349.1323,338.1006)">
          <path
             d="m 0,0 h 0.005 z m -44.846,93.844 c -8.496,0 -17.165,-1.609 -25.49,-4.84 -17.604,-6.832 -31.418,-20.029 -37.901,-36.207 -12.681,-34.167 5.543,-64.393 30.109,-76.57 21.373,-10.595 54.254,-10.471 76.582,24.745 15.675,25.153 12.885,66.025 -16.213,86.875 -8.337,3.993 -17.605,5.997 -27.087,5.997 m -7.433,-127.442 c -9.304,0 -18.716,2.212 -27.472,6.552 -13.847,6.864 -24.857,18.299 -31.002,32.199 -6.78,15.334 -7.088,32.264 -0.892,48.959 6.875,17.158 21.444,31.1 39.987,38.297 18.609,7.222 38.883,6.734 55.625,-1.339 l 0.141,-0.068 0.126,-0.09 C -1.745,80.92 7.613,65.477 10.583,47.429 13.388,30.383 10.095,12.744 1.55,-0.966 L 1.542,-0.978 c -10.138,-15.993 -23.681,-26.617 -39.164,-30.725 -4.778,-1.268 -9.703,-1.895 -14.657,-1.895"
             style="fill:#351c43;fill-opacity:1;fill-rule:nonzero;stroke:none"
             id="path736" />
        </g>
        <g
           id="g738"
           transform="translate(338.2014,324.2823)">
          <path
             d="M 0,0 H 0.005 Z M -74.931,85.571 C -100.725,62.376 -98.038,32.627 -83.925,13.427 -68.379,-7.72 -36.776,-19.6 -1.155,1.438 c 28.157,30.19 22.666,63.834 5.611,82.354 -17.15,18.624 -48.345,26.389 -79.387,1.779 m 36.699,-98.745 c -4.082,0 -8.119,0.393 -12.089,1.183 -14.695,2.927 -27.674,11.186 -36.546,23.255 -8.193,11.145 -12.114,24.582 -11.041,37.835 1.185,14.639 8.301,28.203 20.577,39.226 l 0.085,0.071 c 14.708,11.676 30.917,17.231 46.87,16.073 C -16.03,103.426 -2.706,96.961 7.143,86.267 17.22,75.323 22.635,61.092 22.389,46.196 22.114,29.553 14.833,13.147 1.332,-1.249 L 1.155,-1.438 0.933,-1.57 C -11.99,-9.248 -25.326,-13.174 -38.232,-13.174"
             style="fill:#351c43;fill-opacity:1;fill-rule:nonzero;stroke:none"
             id="path740" />
        </g>
        <g
           id="g742"
           transform="translate(212.2964,359.1812)">
          <path
             d="M 0,0 C 4.492,-32.121 37.063,-30.322 35.865,0.775 32.393,34.613 -2.424,32.695 0,0"
             style="fill:#ffffff;fill-opacity:1;fill-rule:nonzero;stroke:none"
             id="path744" />
        </g>
        <g
           id="g746">
          <g
             id="g748" />
          <g
             id="g760">
            <g
               clip-path="url(#clipPath752)"
               opacity="0.350006"
               id="g758">
              <g
                 transform="translate(232.7085,335.7712)"
                 id="g756">
                <path
                   d="M 0,0 C 9.767,0.467 16.946,12.334 15.304,25.813 9.072,11.742 -5.604,35.13 -6.601,41.81 -31.716,35.652 -17.921,-1.243 0,0"
                   style="fill:#351c43;fill-opacity:1;fill-rule:nonzero;stroke:none"
                   id="path754" />
              </g>
            </g>
          </g>
        </g>
        <g
           id="g762"
           transform="translate(214.1134,359.3753)">
          <path
             d="m 0,0 c 2.233,-15.825 11.298,-22.318 18.793,-21.65 7.076,0.629 13.968,7.708 13.433,22.102 C 30.57,16.386 21.49,23.996 13.365,23.28 6.154,22.643 -1.098,15.087 0,0 m 17.754,-25.348 c -8.866,0 -18.955,7.565 -21.38,24.901 l -0.012,0.118 c -1.304,17.593 7.733,26.456 16.682,27.247 9.913,0.88 20.941,-7.825 22.821,-26.151 l 0.008,-0.116 c 0.648,-16.831 -7.949,-25.156 -16.756,-25.939 -0.45,-0.04 -0.905,-0.06 -1.363,-0.06"
             style="fill:#351c43;fill-opacity:1;fill-rule:nonzero;stroke:none"
             id="path764" />
        </g>
        <g
           id="g766"
           transform="translate(211.0227,357.4015)">
          <path
             d="M 0,0 C 3.668,-26.026 28.091,-25.091 27.126,0.061 24.41,27.803 -2.131,26.757 0,0"
             style="fill:#ffffff;fill-opacity:1;fill-rule:nonzero;stroke:none"
             id="path768" />
        </g>
        <g
           id="g770"
           transform="translate(212.8389,357.6015)">
          <path
             d="m 0,0 c 1.81,-12.726 8.517,-17.99 13.995,-17.506 5.029,0.45 9.909,5.956 9.492,17.243 C 22.2,12.703 15.44,18.943 9.423,18.412 4.223,17.951 -0.938,11.992 0,0 m 13.317,-21.188 c -6.935,0 -14.909,6.307 -16.942,20.733 l -0.012,0.11 C -4.792,14.163 2.156,21.434 9.1,22.051 16.918,22.741 25.623,15.407 27.127,0.039 l 0.008,-0.108 c 0.526,-13.72 -6.057,-20.471 -12.814,-21.075 -0.331,-0.029 -0.667,-0.044 -1.004,-0.044"
             style="fill:#351c43;fill-opacity:1;fill-rule:nonzero;stroke:none"
             id="path772" />
        </g>
        <g
           id="g774">
          <g
             id="g776" />
          <g
             id="g788">
            <g
               clip-path="url(#clipPath780)"
               opacity="0.5"
               id="g786">
              <g
                 transform="translate(254.5275,373.8925)"
                 id="g784">
                <path
                   d="M 0,0 C 3.597,-13.172 18.631,-9.316 17.441,2.595 15.091,17.531 -2.701,13.273 0,0"
                   style="fill:#ffffff;fill-opacity:1;fill-rule:nonzero;stroke:none"
                   id="path782" />
              </g>
            </g>
          </g>
        </g>
        <g
           id="g790">
          <g
             id="g792" />
          <g
             id="g804">
            <g
               clip-path="url(#clipPath796)"
               opacity="0.5"
               id="g802">
              <g
                 transform="translate(262.3308,353.1931)"
                 id="g800">
                <path
                   d="M 0,0 C 1.667,-4.958 8.274,-3.399 6.963,2.156 5.296,7.114 -1.311,5.554 0,0"
                   style="fill:#ffffff;fill-opacity:1;fill-rule:nonzero;stroke:none"
                   id="path798" />
              </g>
            </g>
          </g>
        </g>
        <g
           id="g806">
          <g
             id="g808" />
          <g
             id="g820">
            <g
               clip-path="url(#clipPath812)"
               opacity="0.350006"
               id="g818">
              <g
                 transform="translate(239.3667,351.5544)"
                 id="g816">
                <path
                   d="M 0,0 C 0.526,3.66 0.051,7.477 -1.186,10.979 -6.091,-6.514 -23.641,1.511 -27.543,14.176 -31.847,-11.742 -5.628,-24.292 0,0"
                   style="fill:#351c43;fill-opacity:1;fill-rule:nonzero;stroke:none"
                   id="path814" />
              </g>
            </g>
          </g>
        </g>
        <g
           id="g822"
           transform="translate(134.1522,130.5836)">
          <path
             d="m 0,0 v 35.304 h 9.327 l 9.239,-23.319 v 23.319 h 8.282 L 26.848,0 H 17.347 L 8.28,21.618 V 0 Z"
             style="fill:#231916;fill-opacity:1;fill-rule:nonzero;stroke:none"
             id="path824" />
        </g>
        <g
           id="g826"
           transform="translate(164.4871,130.5836)">
          <path
             d="M 0,0 V 35.304 H 22.011 V 28.025 H 8.237 V 20.572 H 21.4 V 13.468 H 8.237 L 8.237,0 Z"
             style="fill:#231916;fill-opacity:1;fill-rule:nonzero;stroke:none"
             id="path828" />
        </g>
        <g
           id="g830"
           transform="translate(198.8318,130.5836)">
          <path
             d="m 0,0 v 27.677 h -8.848 v 7.627 H 17.26 V 27.677 H 8.237 L 8.237,0 Z"
             style="fill:#231916;fill-opacity:1;fill-rule:nonzero;stroke:none"
             id="path832" />
        </g>
        <g
           id="g834"
           transform="translate(232.6531,130.5836)">
          <path
             d="M 0,0 V 35.304 H 22.01 V 27.981 H 8.237 V 21.312 H 21.53 V 14.165 H 8.237 V 7.322 H 22.969 V 0 Z"
             style="fill:#231916;fill-opacity:1;fill-rule:nonzero;stroke:none"
             id="path836" />
        </g>
        <g
           id="g838"
           transform="translate(278.7215,130.5836)">
          <path
             d="M 0,0 -4.75,11.898 -10.067,0 h -9.545 l 9.457,18 -8.979,17.304 h 9.458 l 4.708,-10.94 4.532,10.94 H 9.066 L 0.523,18.523 9.546,0 Z"
             style="fill:#231916;fill-opacity:1;fill-rule:nonzero;stroke:none"
             id="path840" />
        </g>
        <g
           id="g842"
           transform="translate(299.991,146.7975)">
          <path
             d="m 0,0 h 3.573 c 1.162,0 2.136,0.159 2.921,0.479 0.784,0.32 1.416,0.748 1.896,1.286 0.479,0.537 0.82,1.176 1.024,1.918 0.203,0.741 0.305,1.546 0.305,2.419 0,1.656 -0.531,2.942 -1.591,3.857 -1.061,0.915 -2.579,1.373 -4.555,1.373 L 0,11.332 Z M -8.238,-16.214 V 19.09 H 3.573 c 4.679,0 8.252,-1.061 10.723,-3.182 C 16.765,13.787 18,10.518 18,6.102 18,1.627 16.765,-1.787 14.296,-4.141 11.825,-6.495 8.252,-7.672 3.573,-7.672 H 0 v -8.542 z"
             style="fill:#231916;fill-opacity:1;fill-rule:nonzero;stroke:none"
             id="path844" />
        </g>
        <g
           id="g846"
           transform="translate(321.4783,130.5836)">
          <path
             d="M 0,0 V 35.304 H 8.238 V 7.278 H 20.834 V 0 Z"
             style="fill:#231916;fill-opacity:1;fill-rule:nonzero;stroke:none"
             id="path848" />
        </g>
        <g
           id="g850"
           transform="translate(361.7078,137.9059)">
          <path
             d="m 0,0 c 1.249,0 2.331,0.254 3.247,0.763 0.915,0.508 1.663,1.219 2.244,2.135 0.581,0.915 1.017,2.012 1.308,3.29 0.29,1.279 0.45,2.674 0.479,4.185 0.029,1.511 -0.102,2.898 -0.392,4.162 -0.29,1.265 -0.734,2.347 -1.329,3.247 -0.596,0.901 -1.359,1.606 -2.288,2.114 -0.931,0.508 -2.02,0.763 -3.269,0.763 -1.279,0 -2.376,-0.255 -3.291,-0.763 -0.915,-0.508 -1.664,-1.22 -2.245,-2.135 C -6.117,16.846 -6.56,15.763 -6.865,14.514 -7.17,13.264 -7.352,11.884 -7.41,10.373 -7.439,8.862 -7.309,7.467 -7.018,6.188 -6.728,4.91 -6.276,3.813 -5.666,2.898 -5.057,1.982 -4.279,1.271 -3.335,0.763 -2.391,0.254 -1.279,0 0,0 m 0,27.981 c 2.498,0 4.721,-0.414 6.668,-1.242 1.946,-0.828 3.596,-2.005 4.947,-3.53 1.351,-1.525 2.382,-3.378 3.095,-5.558 0.711,-2.178 1.067,-4.605 1.067,-7.278 C 15.777,7.671 15.421,5.23 14.71,3.051 13.997,0.871 12.966,-0.988 11.615,-2.528 10.264,-4.068 8.614,-5.252 6.668,-6.08 4.721,-6.908 2.498,-7.322 0,-7.322 c -2.528,0 -4.78,0.414 -6.756,1.242 -1.976,0.828 -3.64,2.012 -4.99,3.552 -1.352,1.54 -2.384,3.399 -3.095,5.579 -0.713,2.179 -1.068,4.62 -1.068,7.322 0,2.673 0.355,5.1 1.068,7.278 0.711,2.18 1.75,4.033 3.116,5.558 1.366,1.525 3.037,2.702 5.012,3.53 1.976,0.828 4.213,1.242 6.713,1.242"
             style="fill:#231916;fill-opacity:1;fill-rule:nonzero;stroke:none"
             id="path852" />
        </g>
        <g
           id="g854"
           transform="translate(388.8172,149.2379)">
          <path
             d="m 0,0 h 4.489 c 1.017,0 1.86,0.138 2.529,0.414 0.668,0.275 1.19,0.632 1.568,1.067 0.378,0.437 0.639,0.945 0.785,1.526 0.145,0.581 0.218,1.177 0.218,1.787 0,1.395 -0.48,2.441 -1.439,3.139 C 7.191,8.63 5.985,8.979 4.533,8.979 H 0 Z m -7.846,-18.611 v 35.26 H 4.533 c 1.83,0 3.515,-0.239 5.056,-0.718 1.539,-0.48 2.854,-1.206 3.944,-2.18 1.09,-0.974 1.94,-2.201 2.55,-3.683 0.61,-1.482 0.915,-3.24 0.915,-5.274 0,-2.557 -0.501,-4.715 -1.504,-6.472 -1.002,-1.759 -2.39,-3.102 -4.162,-4.032 l 5.884,-12.944 H 8.543 L 4.01,-7.235 H 0 v -11.376 z"
             style="fill:#231916;fill-opacity:1;fill-rule:nonzero;stroke:none"
             id="path856" />
        </g>
        <g
           id="g858"
           transform="translate(409.6063,130.5836)">
          <path
             d="M 0,0 V 35.304 H 22.011 V 27.981 H 8.238 V 21.312 H 21.531 V 14.165 H 8.238 V 7.322 H 22.97 V 0 Z"
             style="fill:#231916;fill-opacity:1;fill-rule:nonzero;stroke:none"
             id="path860" />
        </g>
        <g
           id="g862"
           transform="translate(443.908,149.2379)">
          <path
             d="m 0,0 h 4.489 c 1.017,0 1.86,0.138 2.529,0.414 0.668,0.275 1.19,0.632 1.568,1.067 0.378,0.437 0.639,0.945 0.785,1.526 0.145,0.581 0.218,1.177 0.218,1.787 0,1.395 -0.48,2.441 -1.439,3.139 C 7.191,8.63 5.985,8.979 4.533,8.979 H 0 Z m -7.846,-18.611 v 35.26 H 4.533 c 1.83,0 3.515,-0.239 5.056,-0.718 1.539,-0.48 2.854,-1.206 3.944,-2.18 1.09,-0.974 1.94,-2.201 2.55,-3.683 0.61,-1.482 0.915,-3.24 0.915,-5.274 0,-2.557 -0.501,-4.715 -1.504,-6.472 -1.002,-1.759 -2.39,-3.102 -4.162,-4.032 l 5.884,-12.944 H 8.543 L 4.01,-7.235 H 0 v -11.376 z"
             style="fill:#231916;fill-opacity:1;fill-rule:nonzero;stroke:none"
             id="path864" />
        </g>
      </g>
    </g>
  </g>
</svg>
